<svg width="160" height="142" viewBox="0 0 160 142" fill="none" xmlns="http://www.w3.org/2000/svg">
<rect width="160" height="142" rx="12" fill="white"/>
<rect x="16" y="16" width="40" height="40" rx="8" fill="#EFF1F7"/>
<path d="M45.0836 33.2489C44.6824 33.193 44.2994 33.0508 43.9633 32.8331C43.6272 32.6153 43.3466 32.3276 43.1424 31.9913C42.9382 31.655 42.8156 31.2788 42.7839 30.8907C42.7521 30.5027 42.8119 30.1127 42.9588 29.7499C43.0522 29.5127 43.066 29.2534 42.9982 29.0083C42.9303 28.7632 42.7843 28.5446 42.5806 28.3832C41.6812 27.6581 40.6575 27.0885 39.5551 26.6997C39.304 26.6102 39.0299 26.599 38.7719 26.6678C38.5139 26.7365 38.285 26.8817 38.1179 27.0827C37.8664 27.3914 37.545 27.6411 37.1781 27.8128C36.8111 27.9846 36.4082 28.0738 36 28.0738C35.5918 28.0738 35.1889 27.9846 34.822 27.8128C34.455 27.6411 34.1336 27.3914 33.8821 27.0827C33.715 26.8817 33.4862 26.7365 33.2281 26.6678C32.9701 26.599 32.696 26.6102 32.445 26.6997C31.427 27.0586 30.4753 27.5713 29.6257 28.2182C29.4115 28.381 29.2573 28.6053 29.1855 28.8584C29.1137 29.1114 29.1282 29.3799 29.2269 29.6244C29.3855 29.9968 29.4511 30.3998 29.4183 30.8009C29.3855 31.202 29.2552 31.5902 29.0379 31.9343C28.8206 32.2783 28.5224 32.5687 28.1671 32.7821C27.8118 32.9955 27.4094 33.126 26.9921 33.1631C26.7211 33.1909 26.4667 33.3015 26.2661 33.4786C26.0656 33.6557 25.9296 33.8899 25.8781 34.1468C25.7501 34.7553 25.6856 35.3746 25.6856 35.9954C25.6846 36.5151 25.7283 37.034 25.8162 37.5469C25.86 37.812 25.9934 38.0559 26.196 38.2408C26.3986 38.4258 26.6591 38.5415 26.937 38.5702C27.3635 38.6086 27.7742 38.7445 28.1347 38.9666C28.4952 39.1887 28.7951 39.4905 29.0092 39.8467C29.2233 40.2028 29.3454 40.6031 29.3653 41.0139C29.3853 41.4247 29.3024 41.8341 29.1237 42.2079C29.0068 42.451 28.9778 42.7246 29.0413 42.9854C29.1048 43.2461 29.2573 43.479 29.4744 43.6471C30.3684 44.3591 31.3823 44.9195 32.4725 45.3042C32.6119 45.3506 32.7581 45.3751 32.9057 45.3768C33.108 45.3764 33.3072 45.3294 33.4866 45.2398C33.6661 45.1502 33.8206 45.0206 33.9371 44.8619C34.1822 44.5191 34.5107 44.2388 34.8942 44.0455C35.2776 43.8523 35.7044 43.7518 36.1375 43.7527C36.5572 43.7533 36.9709 43.8478 37.3457 44.0289C37.7206 44.21 38.0462 44.4726 38.2967 44.7959C38.4633 45.0109 38.6993 45.167 38.968 45.2398C39.2366 45.3127 39.5228 45.2982 39.782 45.1986C40.7788 44.8134 41.7069 44.281 42.5325 43.6207C42.7399 43.4561 42.8876 43.2325 42.9543 42.9822C43.021 42.7319 43.0033 42.4677 42.9038 42.2277C42.7421 41.8601 42.6716 41.4614 42.6978 41.0631C42.7241 40.6649 42.8464 40.2779 43.0551 39.9328C43.2638 39.5877 43.5533 39.2939 43.9005 39.0746C44.2478 38.8553 44.6434 38.7165 45.0561 38.6692C45.3237 38.6337 45.5726 38.5173 45.7667 38.3368C45.9608 38.1564 46.09 37.9213 46.1357 37.6657C46.2461 37.115 46.3059 36.5561 46.3145 35.9954C46.3146 35.4039 46.257 34.8138 46.1425 34.2326C46.0961 33.9826 45.9688 33.753 45.7787 33.5764C45.5886 33.3998 45.3454 33.2852 45.0836 33.2489ZM39.4382 35.9954C39.4382 36.6483 39.2365 37.2865 38.8587 37.8293C38.4809 38.3722 37.944 38.7953 37.3157 39.0451C36.6875 39.295 35.9962 39.3603 35.3293 39.233C34.6623 39.1056 34.0497 38.7912 33.5689 38.3295C33.088 37.8679 32.7606 37.2797 32.6279 36.6394C32.4953 35.999 32.5633 35.3353 32.8236 34.7321C33.0838 34.129 33.5245 33.6134 34.0899 33.2507C34.6553 32.888 35.32 32.6944 36 32.6944C36.9119 32.6944 37.7864 33.0422 38.4311 33.6612C39.0759 34.2803 39.4382 35.1199 39.4382 35.9954Z" fill="#7A8FAD"/>
<path d="M16.546 73.228H22.748V74.712H16.546V73.228ZM19.668 75.286C21.32 75.286 22.51 76.56 22.51 78.38C22.51 80.186 21.32 81.46 19.668 81.46C18.03 81.46 16.826 80.186 16.826 78.38C16.826 76.56 18.03 75.286 19.668 75.286ZM19.668 76.84C18.968 76.84 18.478 77.4 18.478 78.38C18.478 79.36 18.968 79.906 19.668 79.906C20.368 79.906 20.872 79.36 20.872 78.38C20.872 77.4 20.368 76.84 19.668 76.84ZM25.926 71.282H27.704V84.246H25.926V71.282ZM24.372 76.546H26.514V78.044H24.372V76.546ZM23.21 71.52H24.946V83.7H23.21V71.52ZM18.758 71.632H20.592V74.166H18.758V71.632ZM32.6589 77.764H34.5349V80.494H32.6589V77.764ZM33.6109 72.038C35.6549 72.038 37.1809 73.368 37.1809 75.23C37.1809 77.092 35.6549 78.422 33.6109 78.422C31.5809 78.422 30.0269 77.092 30.0269 75.23C30.0269 73.368 31.5809 72.038 33.6109 72.038ZM33.6109 73.634C32.6169 73.634 31.8609 74.208 31.8609 75.23C31.8609 76.238 32.6169 76.84 33.6109 76.84C34.6049 76.84 35.3609 76.238 35.3609 75.23C35.3609 74.208 34.6049 73.634 33.6109 73.634ZM38.3989 71.268H40.2609V84.274H38.3989V71.268ZM29.7189 81.67L29.4949 80.172C31.7769 80.172 34.9549 80.144 37.6849 79.738L37.8249 81.082C35.0109 81.642 31.9589 81.67 29.7189 81.67ZM54.0207 71.282H55.7987V84.246H54.0207V71.282ZM52.3827 76.168H54.5247V77.652H52.3827V76.168ZM48.5187 72.864H50.2967C50.2967 76.518 49.2327 79.472 45.6067 81.586L44.5287 80.298C47.4827 78.548 48.5187 76.364 48.5187 73.256V72.864ZM45.1867 72.864H49.0647V74.362H45.1867V72.864ZM51.1507 71.618H52.8867V83.686H51.1507V71.618ZM57.9536 71.856H59.8016V73.382H62.3356V71.856H64.1836V77.526H57.9536V71.856ZM59.8016 74.782V76.07H62.3356V74.782H59.8016ZM65.9196 71.282H67.7816V77.862H65.9196V71.282ZM67.0256 73.774H69.4896V75.286H67.0256V73.774ZM59.2136 78.366H67.7816V81.894H61.0896V83.434H59.2416V80.564H65.9476V79.794H59.2136V78.366ZM59.2416 82.72H68.1596V84.162H59.2416V82.72ZM73.3665 73.326H74.8365V74.782C74.8365 77.708 73.6045 80.69 71.2245 81.81L70.1745 80.34C72.3165 79.332 73.3665 76.91 73.3665 74.782V73.326ZM73.7585 73.326H75.2285V74.782C75.2285 76.742 76.2365 79.038 78.3645 80.018L77.3425 81.488C74.9625 80.382 73.7585 77.54 73.7585 74.782V73.326ZM70.6785 72.528H77.7905V74.054H70.6785V72.528ZM78.7425 71.282H80.6185V84.246H78.7425V71.282ZM80.1985 76.224H82.4945V77.764H80.1985V76.224ZM94.1403 71.282H96.0023V78.898H94.1403V71.282ZM95.3443 74.334H97.6263V75.86H95.3443V74.334ZM87.2803 79.374H96.0023V82.314H89.1423V83.35H87.2943V81.166H94.1683V80.606H87.2803V79.374ZM87.2943 82.93H96.4503V84.162H87.2943V82.93ZM88.6523 76.462H90.5143V78.31H88.6523V76.462ZM85.7543 78.786L85.5583 77.526C87.8543 77.526 90.9483 77.512 93.5663 77.162L93.7063 78.296C90.9763 78.772 87.9943 78.786 85.7543 78.786ZM85.8943 72.094H93.2443V73.326H85.8943V72.094ZM89.5763 73.564C91.4943 73.564 92.7263 74.194 92.7263 75.258C92.7263 76.336 91.4943 76.966 89.5763 76.966C87.6443 76.966 86.4123 76.336 86.4123 75.258C86.4123 74.194 87.6443 73.564 89.5763 73.564ZM89.5763 74.712C88.6943 74.712 88.1763 74.88 88.1763 75.258C88.1763 75.636 88.6943 75.818 89.5763 75.818C90.4583 75.818 90.9623 75.636 90.9623 75.258C90.9623 74.88 90.4583 74.712 89.5763 74.712ZM88.6523 71.17H90.5143V72.78H88.6523V71.17ZM101.223 75.622H103.085V78.002H101.223V75.622ZM105.787 75.622H107.635V78.002H105.787V75.622ZM98.5913 77.428H110.309V78.898H98.5913V77.428ZM104.429 79.556C107.229 79.556 108.923 80.396 108.923 81.894C108.923 83.406 107.229 84.246 104.429 84.246C101.615 84.246 99.9213 83.406 99.9213 81.894C99.9213 80.396 101.615 79.556 104.429 79.556ZM104.429 80.956C102.693 80.956 101.811 81.25 101.811 81.894C101.811 82.552 102.693 82.846 104.429 82.846C106.165 82.846 107.047 82.552 107.047 81.894C107.047 81.25 106.165 80.956 104.429 80.956ZM104.457 71.464C107.313 71.464 109.147 72.416 109.147 73.97C109.147 75.51 107.313 76.434 104.457 76.434C101.587 76.434 99.7673 75.51 99.7673 73.97C99.7673 72.416 101.587 71.464 104.457 71.464ZM104.457 72.892C102.679 72.892 101.685 73.242 101.685 73.97C101.685 74.684 102.679 75.034 104.457 75.034C106.235 75.034 107.229 74.684 107.229 73.97C107.229 73.242 106.235 72.892 104.457 72.892ZM120.387 75.328H123.803V76.826H120.387V75.328ZM116.859 72.276H118.371V74.152C118.371 77.414 117.265 80.424 114.829 81.642L113.667 80.144C115.879 79.122 116.859 76.616 116.859 74.152V72.276ZM117.251 72.276H118.735V74.152C118.735 76.616 119.673 78.982 121.815 79.934L120.709 81.418C118.273 80.242 117.251 77.386 117.251 74.152V72.276ZM122.879 71.268H124.727V84.274H122.879V71.268ZM135.618 71.268H137.494V84.274H135.618V71.268ZM127.372 72.304H129.22V75.454H131.894V72.304H133.742V81.25H127.372V72.304ZM129.22 76.896V79.752H131.894V76.896H129.22ZM144.423 72.024H146.047V72.962C146.047 75.776 144.045 78.268 140.685 78.926L139.887 77.386C142.813 76.882 144.423 74.824 144.423 72.962V72.024ZM144.801 72.024H146.411V72.962C146.411 74.866 148.007 76.882 150.947 77.386L150.149 78.926C146.789 78.268 144.801 75.818 144.801 72.962V72.024ZM139.621 81.152H151.353V82.664H139.621V81.152Z" fill="#343741"/>
<path d="M24.848 108.282H26.724V121.246H24.848V108.282ZM26.304 113.112H28.6V114.652H26.304V113.112ZM16.952 109.304H18.8V112.454H21.404V109.304H23.252V118.25H16.952V109.304ZM18.8 113.896V116.752H21.404V113.896H18.8ZM29.4529 118.306H41.1849V119.818H29.4529V118.306ZM34.3669 115.856H36.2289V118.922H34.3669V115.856ZM30.7689 109.122H39.8689V113.434H32.6449V115.618H30.7969V111.978H38.0209V110.592H30.7689V109.122ZM30.7969 114.876H40.1629V116.374H30.7969V114.876ZM50.6058 108.268H52.4818V121.232H50.6058V108.268ZM51.9918 113.224H54.2738V114.75H51.9918V113.224ZM47.2038 109.612H49.0238C49.0238 113.504 47.5398 116.836 43.2278 119.006L42.1918 117.592C45.5938 115.828 47.2038 113.448 47.2038 109.934V109.612ZM42.9058 109.612H48.1558V111.11H42.9058V109.612ZM64.1287 108.282H66.0047V121.246H64.1287V108.282ZM60.3067 109.626H62.1547C62.1547 113.588 60.8107 116.836 56.2047 119.062L55.2387 117.578C58.9627 115.786 60.3067 113.434 60.3067 109.962V109.626ZM55.9247 109.626H61.1887V111.096H55.9247V109.626Z" fill="#5E626F"/>
<path fill-rule="evenodd" clip-rule="evenodd" d="M78.5966 107.917C76.3608 107.917 74.9166 109.279 74.9166 111.388V118.612C74.9166 120.72 76.3608 122.083 78.5966 122.083H85.4033C87.6391 122.083 89.0833 120.72 89.0833 118.612V111.388C89.0833 109.279 87.6391 107.917 85.4033 107.917H78.5966ZM85.4033 123.333H78.5966C75.6483 123.333 73.6666 121.436 73.6666 118.612V111.388C73.6666 108.563 75.6483 106.667 78.5966 106.667H85.4033C88.3516 106.667 90.3333 108.563 90.3333 111.388V118.612C90.3333 121.436 88.3516 123.333 85.4033 123.333Z" fill="#5E626F"/>
<path fill-rule="evenodd" clip-rule="evenodd" d="M85.4048 115.625H78.5948C78.2498 115.625 77.9698 115.345 77.9698 115C77.9698 114.655 78.2498 114.375 78.5948 114.375H85.4048C85.7498 114.375 86.0298 114.655 86.0298 115C86.0298 115.345 85.7498 115.625 85.4048 115.625Z" fill="#5E626F"/>
<path fill-rule="evenodd" clip-rule="evenodd" d="M82.2685 118.748C82.1085 118.748 81.9477 118.688 81.826 118.564C81.5827 118.319 81.5835 117.924 81.8277 117.681L84.5194 115L81.8277 112.319C81.5835 112.076 81.5827 111.681 81.826 111.436C82.0694 111.191 82.4644 111.191 82.7094 111.434L85.846 114.558C85.9644 114.674 86.0302 114.834 86.0302 115C86.0302 115.166 85.9644 115.326 85.846 115.443L82.7094 118.566C82.5877 118.688 82.4277 118.748 82.2685 118.748Z" fill="#5E626F"/>
</svg>
