<svg width="160" height="163" viewBox="0 0 160 163" fill="none" xmlns="http://www.w3.org/2000/svg">
<rect width="160" height="163" rx="12" fill="white"/>
<rect x="16" y="16" width="40" height="40" rx="8" fill="#EFF1F7"/>
<path d="M35.9142 36.0336C37.0384 36.0336 37.9751 35.6609 38.8182 34.9154C39.7549 34.1697 40.2233 32.9581 40.2233 31.7465C40.2233 30.8146 39.9423 29.8826 39.3803 29.2302C38.6308 28.1118 37.413 27.3662 35.9142 27.3662C33.5723 27.3662 31.6051 29.3234 31.6051 31.6533C31.6051 34.0765 33.5723 36.0336 35.9142 36.0336Z" fill="#7A8FAD"/>
<path d="M38.3965 38.271C38.1155 38.271 37.9281 38.1777 37.6471 38.1777H34.0874C31.3708 38.1777 29.1226 40.4146 29.1226 43.1173C29.1226 43.7697 29.4036 44.2357 29.872 44.6085C30.6214 45.0745 32.4012 45.6335 35.8673 45.6335C39.3333 45.6335 41.0194 45.0745 41.8625 44.6085C41.8625 44.6085 41.9562 44.5153 42.0499 44.5153C42.4246 44.2357 42.7056 43.7697 42.7056 43.1173C42.6119 40.6942 40.8321 38.6438 38.3965 38.271Z" fill="#7A8FAD"/>
<path d="M19.78 77.764H21.656V80.494H19.78V77.764ZM20.732 72.038C22.776 72.038 24.302 73.368 24.302 75.23C24.302 77.092 22.776 78.422 20.732 78.422C18.702 78.422 17.148 77.092 17.148 75.23C17.148 73.368 18.702 72.038 20.732 72.038ZM20.732 73.634C19.738 73.634 18.982 74.208 18.982 75.23C18.982 76.238 19.738 76.84 20.732 76.84C21.726 76.84 22.482 76.238 22.482 75.23C22.482 74.208 21.726 73.634 20.732 73.634ZM25.52 71.268H27.382V84.274H25.52V71.268ZM16.84 81.67L16.616 80.172C18.898 80.172 22.076 80.144 24.806 79.738L24.946 81.082C22.132 81.642 19.08 81.67 16.84 81.67ZM30.8809 71.828H39.0989V73.312H30.8809V71.828ZM29.4529 76.308H41.1849V77.792H29.4529V76.308ZM34.3669 77.358H36.2289V80.074H34.3669V77.358ZM37.9789 71.828H39.8129V72.864C39.8129 73.984 39.8129 75.286 39.4069 76.994L37.5729 76.812C37.9789 75.146 37.9789 73.956 37.9789 72.864V71.828ZM30.6289 79.612H39.8269V84.246H37.9649V81.082H30.6289V79.612ZM51.2218 71.296H53.0978V80.606H51.2218V71.296ZM44.4598 82.538H53.4198V84.022H44.4598V82.538ZM44.4598 79.668H46.3218V83.14H44.4598V79.668ZM46.0418 72.108C48.0298 72.108 49.5558 73.48 49.5558 75.398C49.5558 77.302 48.0298 78.688 46.0418 78.688C44.0538 78.688 42.5138 77.302 42.5138 75.398C42.5138 73.48 44.0538 72.108 46.0418 72.108ZM46.0418 73.718C45.0758 73.718 44.3338 74.334 44.3338 75.398C44.3338 76.448 45.0758 77.064 46.0418 77.064C46.9938 77.064 47.7358 76.448 47.7358 75.398C47.7358 74.334 46.9938 73.718 46.0418 73.718ZM60.9496 77.932H62.8116V80.774H60.9496V77.932ZM66.6336 71.282H68.4956V81.096H66.6336V71.282ZM59.1576 82.538H68.7756V84.022H59.1576V82.538ZM59.1576 80.172H61.0196V82.93H59.1576V80.172ZM57.7576 78.492L57.5336 77.008C59.8996 77.008 63.0636 76.98 65.7796 76.63L65.8916 77.96C63.1336 78.422 60.0956 78.492 57.7576 78.492ZM64.1836 78.814H67.0396V80.088H64.1836V78.814ZM61.7056 71.73C63.5956 71.73 64.9256 72.668 64.9256 74.04C64.9256 75.426 63.5956 76.35 61.7056 76.35C59.8016 76.35 58.4716 75.426 58.4716 74.04C58.4716 72.668 59.8016 71.73 61.7056 71.73ZM61.7056 73.088C60.8376 73.088 60.2356 73.41 60.2356 74.04C60.2356 74.67 60.8376 74.992 61.7056 74.992C62.5596 74.992 63.1616 74.67 63.1616 74.04C63.1616 73.41 62.5596 73.088 61.7056 73.088ZM75.3825 72.094H77.3285C77.3285 75.58 75.1725 77.946 71.2945 78.968L70.5945 77.512C73.7725 76.686 75.3825 75.006 75.3825 73.018V72.094ZM71.3225 72.094H76.5865V73.578H71.3225V72.094ZM72.4705 79.528H81.3045V84.204H79.4425V80.984H72.4705V79.528ZM79.4425 71.282H81.3045V78.982H79.4425V71.282ZM76.7125 73.368H79.7505V74.838H76.7125V73.368ZM76.5865 76.126H79.6385V77.61H76.5865V76.126ZM87.9803 74.866H89.3803V75.202C89.3803 77.89 88.5963 80.592 86.5243 81.782L85.4743 80.382C87.3223 79.304 87.9803 77.19 87.9803 75.202V74.866ZM88.3443 74.866H89.7443V75.202C89.7443 77.148 90.4163 79.122 92.2503 80.102L91.2423 81.474C89.1423 80.382 88.3443 77.848 88.3443 75.202V74.866ZM85.9083 73.466H91.8023V74.964H85.9083V73.466ZM87.9803 71.716H89.7443V74.67H87.9803V71.716ZM95.1763 71.282H96.9403V84.246H95.1763V71.282ZM93.6223 76.252H95.7783V77.764H93.6223V76.252ZM92.3903 71.478H94.1263V83.658H92.3903V71.478ZM101.223 75.622H103.085V78.002H101.223V75.622ZM105.787 75.622H107.635V78.002H105.787V75.622ZM98.5913 77.428H110.309V78.898H98.5913V77.428ZM104.429 79.556C107.229 79.556 108.923 80.396 108.923 81.894C108.923 83.406 107.229 84.246 104.429 84.246C101.615 84.246 99.9213 83.406 99.9213 81.894C99.9213 80.396 101.615 79.556 104.429 79.556ZM104.429 80.956C102.693 80.956 101.811 81.25 101.811 81.894C101.811 82.552 102.693 82.846 104.429 82.846C106.165 82.846 107.047 82.552 107.047 81.894C107.047 81.25 106.165 80.956 104.429 80.956ZM104.457 71.464C107.313 71.464 109.147 72.416 109.147 73.97C109.147 75.51 107.313 76.434 104.457 76.434C101.587 76.434 99.7673 75.51 99.7673 73.97C99.7673 72.416 101.587 71.464 104.457 71.464ZM104.457 72.892C102.679 72.892 101.685 73.242 101.685 73.97C101.685 74.684 102.679 75.034 104.457 75.034C106.235 75.034 107.229 74.684 107.229 73.97C107.229 73.242 106.235 72.892 104.457 72.892ZM19.654 107.206C18.758 106.357 18.0487 105.237 17.526 103.846C17.0127 102.455 16.756 100.953 16.756 99.338C16.756 97.7233 17.0127 96.2207 17.526 94.83C18.0487 93.4393 18.758 92.3193 19.654 91.47H22.65V91.764C21.7447 92.716 21.0307 93.864 20.508 95.208C19.9853 96.5427 19.724 97.9193 19.724 99.338C19.724 100.766 19.9853 102.152 20.508 103.496C21.0307 104.831 21.7447 105.974 22.65 106.926V107.206H19.654ZM31.9305 92.268H33.8065V105.274H31.9305V92.268ZM23.6845 93.304H25.5325V96.454H28.2065V93.304H30.0545V102.25H23.6845V93.304ZM25.5325 97.896V100.752H28.2065V97.896H25.5325ZM45.2434 92.282H47.0214V105.246H45.2434V92.282ZM43.6054 97.168H45.7474V98.652H43.6054V97.168ZM39.7414 93.864H41.5194C41.5194 97.518 40.4554 100.472 36.8294 102.586L35.7514 101.298C38.7054 99.548 39.7414 97.364 39.7414 94.256V93.864ZM36.4094 93.864H40.2874V95.362H36.4094V93.864ZM42.3734 92.618H44.1094V104.686H42.3734V92.618ZM49.1763 92.856H51.0243V94.382H53.5583V92.856H55.4063V98.526H49.1763V92.856ZM51.0243 95.782V97.07H53.5583V95.782H51.0243ZM57.1423 92.282H59.0043V98.862H57.1423V92.282ZM58.2483 94.774H60.7123V96.286H58.2483V94.774ZM50.4363 99.366H59.0043V102.894H52.3123V104.434H50.4643V101.564H57.1703V100.794H50.4363V99.366ZM50.4643 103.72H59.3823V105.162H50.4643V103.72ZM60.9492 107.206V106.926C61.8545 105.974 62.5685 104.831 63.0912 103.496C63.6139 102.152 63.8752 100.766 63.8752 99.338C63.8752 97.9193 63.6139 96.5427 63.0912 95.208C62.5685 93.864 61.8545 92.716 60.9492 91.764V91.47H63.9452C64.8412 92.3193 65.5459 93.4393 66.0592 94.83C66.5819 96.2207 66.8432 97.7233 66.8432 99.338C66.8432 100.953 66.5819 102.455 66.0592 103.846C65.5459 105.237 64.8412 106.357 63.9452 107.206H60.9492Z" fill="#343741"/>
<path d="M24.848 129.282H26.724V142.246H24.848V129.282ZM26.304 134.112H28.6V135.652H26.304V134.112ZM16.952 130.304H18.8V133.454H21.404V130.304H23.252V139.25H16.952V130.304ZM18.8 134.896V137.752H21.404V134.896H18.8ZM29.4529 139.306H41.1849V140.818H29.4529V139.306ZM34.3669 136.856H36.2289V139.922H34.3669V136.856ZM30.7689 130.122H39.8689V134.434H32.6449V136.618H30.7969V132.978H38.0209V131.592H30.7689V130.122ZM30.7969 135.876H40.1629V137.374H30.7969V135.876ZM50.6058 129.268H52.4818V142.232H50.6058V129.268ZM51.9918 134.224H54.2738V135.75H51.9918V134.224ZM47.2038 130.612H49.0238C49.0238 134.504 47.5398 137.836 43.2278 140.006L42.1918 138.592C45.5938 136.828 47.2038 134.448 47.2038 130.934V130.612ZM42.9058 130.612H48.1558V132.11H42.9058V130.612ZM64.1287 129.282H66.0047V142.246H64.1287V129.282ZM60.3067 130.626H62.1547C62.1547 134.588 60.8107 137.836 56.2047 140.062L55.2387 138.578C58.9627 136.786 60.3067 134.434 60.3067 130.962V130.626ZM55.9247 130.626H61.1887V132.096H55.9247V130.626Z" fill="#5E626F"/>
<path fill-rule="evenodd" clip-rule="evenodd" d="M78.5966 128.917C76.3608 128.917 74.9166 130.279 74.9166 132.388V139.612C74.9166 141.72 76.3608 143.083 78.5966 143.083H85.4033C87.6391 143.083 89.0833 141.72 89.0833 139.612V132.388C89.0833 130.279 87.6391 128.917 85.4033 128.917H78.5966ZM85.4033 144.333H78.5966C75.6483 144.333 73.6666 142.436 73.6666 139.612V132.388C73.6666 129.563 75.6483 127.667 78.5966 127.667H85.4033C88.3516 127.667 90.3333 129.563 90.3333 132.388V139.612C90.3333 142.436 88.3516 144.333 85.4033 144.333Z" fill="#5E626F"/>
<path fill-rule="evenodd" clip-rule="evenodd" d="M85.4048 136.625H78.5948C78.2498 136.625 77.9698 136.345 77.9698 136C77.9698 135.655 78.2498 135.375 78.5948 135.375H85.4048C85.7498 135.375 86.0298 135.655 86.0298 136C86.0298 136.345 85.7498 136.625 85.4048 136.625Z" fill="#5E626F"/>
<path fill-rule="evenodd" clip-rule="evenodd" d="M82.2685 139.748C82.1085 139.748 81.9477 139.688 81.826 139.564C81.5827 139.319 81.5835 138.924 81.8277 138.681L84.5194 136L81.8277 133.319C81.5835 133.076 81.5827 132.681 81.826 132.436C82.0694 132.191 82.4644 132.191 82.7094 132.434L85.846 135.558C85.9644 135.674 86.0302 135.834 86.0302 136C86.0302 136.166 85.9644 136.326 85.846 136.443L82.7094 139.566C82.5877 139.688 82.4277 139.748 82.2685 139.748Z" fill="#5E626F"/>
</svg>
