<svg width="109" height="24" viewBox="0 0 109 24" fill="none" xmlns="http://www.w3.org/2000/svg">
<rect y="2" width="20" height="20" rx="6" fill="#E8ECFF"/>
<path d="M14.6666 8.5L8.24992 14.9167L5.33325 12" stroke="#2C599B" stroke-width="2" stroke-linecap="round" stroke-linejoin="round"/>
<path d="M42.176 4.624H44.304V15.696H42.176V4.624ZM43.696 9.136H46.272V10.88H43.696V9.136ZM32.64 6.16H41.36V7.824H32.64V6.16ZM37.008 8.352C39.136 8.352 40.64 9.52 40.64 11.216C40.64 12.912 39.136 14.064 37.008 14.064C34.864 14.064 33.36 12.912 33.36 11.216C33.36 9.52 34.864 8.352 37.008 8.352ZM37.008 9.968C36.064 9.968 35.408 10.416 35.408 11.216C35.408 12.016 36.064 12.448 37.008 12.448C37.952 12.448 38.608 12.016 38.608 11.216C38.608 10.416 37.952 9.968 37.008 9.968ZM35.936 4.592H38.064V6.976H35.936V4.592ZM34.752 17.472H44.832V19.168H34.752V17.472ZM34.752 14.864H36.88V18.208H34.752V14.864ZM49.0068 5.232H58.3988V6.928H49.0068V5.232ZM47.3748 10.352H60.7828V12.048H47.3748V10.352ZM52.9908 11.552H55.1188V14.656H52.9908V11.552ZM57.1188 5.232H59.2148V6.416C59.2148 7.696 59.2148 9.184 58.7508 11.136L56.6548 10.928C57.1188 9.024 57.1188 7.664 57.1188 6.416V5.232ZM48.7188 14.128H59.2308V19.424H57.1028V15.808H48.7188V14.128ZM66.1415 5.632C68.3495 5.632 69.9655 7.68 69.9655 10.912C69.9655 14.176 68.3495 16.224 66.1415 16.224C63.9175 16.224 62.3175 14.176 62.3175 10.912C62.3175 7.68 63.9175 5.632 66.1415 5.632ZM66.1415 7.568C65.0695 7.568 64.3495 8.736 64.3495 10.912C64.3495 13.12 65.0695 14.304 66.1415 14.304C67.2295 14.304 67.9335 13.12 67.9335 10.912C67.9335 8.736 67.2295 7.568 66.1415 7.568ZM72.3975 4.592H74.5095V19.456H72.3975V4.592ZM69.3415 9.936H73.2935V11.648H69.3415V9.936ZM81.211 8.288H91.435V9.984H81.211V8.288ZM81.211 4.848H83.323V9.056H81.211V4.848ZM79.531 11.248H92.939V12.944H79.531V11.248ZM86.187 13.888C89.387 13.888 91.323 14.88 91.323 16.64C91.323 18.384 89.387 19.392 86.187 19.392C82.987 19.392 81.035 18.384 81.035 16.64C81.035 14.88 82.987 13.888 86.187 13.888ZM86.187 15.52C84.203 15.52 83.195 15.872 83.195 16.64C83.195 17.392 84.203 17.76 86.187 17.76C88.171 17.76 89.179 17.392 89.179 16.64C89.179 15.872 88.171 15.52 86.187 15.52ZM94.7938 11.664H95.9298C98.6818 11.664 100.122 11.616 101.802 11.312L102.01 12.992C100.282 13.312 98.7618 13.36 95.9298 13.36H94.7938V11.664ZM94.7778 5.456H101.29V10.128H96.9058V12.784H94.7938V8.544H99.1778V7.136H94.7778V5.456ZM104.506 4.624H106.634V13.744H104.506V4.624ZM102.138 6.656H104.89V8.352H102.138V6.656ZM102.138 9.808H104.89V11.504H102.138V9.808ZM96.4898 14.416H106.634V19.44H104.506V16.112H96.4898V14.416Z" fill="white"/>
</svg>
