<svg width="327" height="113" viewBox="0 0 327 113" fill="none" xmlns="http://www.w3.org/2000/svg">
<path d="M6.591 35.876H9.763V37.267H6.591V35.876ZM3.315 33.042H4.719V34.784C4.719 37.813 3.692 40.608 1.43 41.739L0.351 40.348C2.405 39.399 3.315 37.072 3.315 34.784V33.042ZM3.679 33.042H5.057V34.784C5.057 37.072 5.928 39.269 7.917 40.153L6.89 41.531C4.628 40.439 3.679 37.787 3.679 34.784V33.042ZM8.905 32.106H10.621V44.183H8.905V32.106ZM17.042 37.852H18.771V39.529H17.042V37.852ZM17.926 32.236C20.669 32.236 22.281 32.951 22.281 34.277C22.281 35.603 20.669 36.331 17.926 36.331C15.17 36.331 13.571 35.603 13.571 34.277C13.571 32.951 15.17 32.236 17.926 32.236ZM17.926 33.497C16.184 33.497 15.365 33.744 15.365 34.277C15.365 34.836 16.184 35.07 17.926 35.07C19.668 35.07 20.487 34.836 20.487 34.277C20.487 33.744 19.668 33.497 17.926 33.497ZM12.479 36.851H23.36V38.216H12.479V36.851ZM13.727 38.996H22.047V42.09H15.443V43.156H13.74V40.894H20.344V40.283H13.727V38.996ZM13.74 42.779H22.359V44.079H13.74V42.779ZM24.425 38.372H35.319V39.737H24.425V38.372ZM25.647 40.504H33.993V44.157H32.264V41.869H25.647V40.504ZM25.777 36.331H34.162V37.644H25.777V36.331ZM25.777 32.392H34.071V33.705H27.493V36.994H25.777V32.392ZM27.012 34.368H33.798V35.629H27.012V34.368ZM42.208 33.627H45.12V34.927H42.208V33.627ZM42.208 35.824H45.12V37.124H42.208V35.824ZM44.743 32.119H46.472V38.294H44.743V32.119ZM38.516 38.762H46.472V41.986H40.245V43.507H38.529V40.738H44.756V40.088H38.516V38.762ZM38.529 42.688H46.81V44.027H38.529V42.688ZM36.904 32.613H38.62V34.017H40.908V32.613H42.598V37.969H36.904V32.613ZM38.62 35.317V36.617H40.908V35.317H38.62ZM51.2939 33.042H52.6979V34.797C52.6979 37.891 51.6319 40.686 49.2399 41.791L48.2129 40.361C50.3059 39.451 51.2939 37.137 51.2939 34.797V33.042ZM51.6319 33.042H53.0359V34.797C53.0359 37.02 53.9849 39.23 56.0389 40.114L55.0249 41.505C52.6979 40.439 51.6319 37.761 51.6319 34.797V33.042ZM56.6109 32.106H58.3529V44.183H56.6109V32.106ZM70.2719 32.119H72.0009V39.087H70.2719V32.119ZM71.5199 34.927H73.5999V36.344H71.5199V34.927ZM66.8269 32.899H68.6859C68.6859 36.136 66.6839 38.385 63.1349 39.373L62.4329 37.995C65.3319 37.202 66.8269 35.629 66.8269 33.77V32.899ZM63.0049 32.899H67.8799V34.29H63.0049V32.899ZM68.1009 39.243C70.5319 39.243 72.1309 40.192 72.1309 41.7C72.1309 43.221 70.5319 44.17 68.1009 44.17C65.6699 44.17 64.0449 43.221 64.0449 41.7C64.0449 40.192 65.6699 39.243 68.1009 39.243ZM68.1009 40.582C66.6319 40.582 65.7609 40.972 65.7609 41.7C65.7609 42.441 66.6319 42.831 68.1009 42.831C69.5699 42.831 70.4409 42.441 70.4409 41.7C70.4409 40.972 69.5699 40.582 68.1009 40.582ZM82.2309 32.119H83.9599V38.905H82.2309V32.119ZM83.4919 34.654H85.5589V36.058H83.4919V34.654ZM76.1209 39.451H83.9599V44.027H76.1209V39.451ZM82.2699 40.803H77.8239V42.662H82.2699V40.803ZM74.9639 32.691H76.6929V37.618H74.9639V32.691ZM74.9639 36.877H75.9779C77.6159 36.877 79.3969 36.76 81.2949 36.396L81.4899 37.787C79.5269 38.19 77.6809 38.294 75.9779 38.294H74.9639V36.877ZM95.1389 32.119H96.7769V44.157H95.1389V32.119ZM93.5269 36.747H95.5289V38.138H93.5269V36.747ZM92.4479 32.327H94.0469V43.585H92.4479V32.327ZM86.7799 40.023H87.6249C89.1069 40.023 90.3419 39.971 91.7719 39.711L91.9019 41.115C90.4459 41.401 89.1719 41.44 87.6249 41.44H86.7799V40.023ZM86.7799 33.51H91.2259V34.901H88.4959V40.699H86.7799V33.51ZM98.4139 41.427H109.308V42.831H98.4139V41.427ZM102.977 39.152H104.706V41.999H102.977V39.152ZM99.6359 32.899H108.086V36.903H101.378V38.931H99.6619V35.551H106.37V34.264H99.6359V32.899ZM99.6619 38.242H108.359V39.633H99.6619V38.242ZM112.725 41.57V39.165L116.599 33.64H119.706V39.074H120.642V41.57H119.706V43H116.794V41.57H112.725ZM117.028 36.929L115.624 39.074H117.028V36.929ZM127.728 35.616L124.764 43H121.8L124.79 35.967H121.436V33.497H127.728V35.616ZM131.156 40.036C131.2 40.2873 131.278 40.478 131.39 40.608C131.512 40.7293 131.676 40.79 131.884 40.79C132.205 40.79 132.413 40.6297 132.508 40.309C132.612 39.9797 132.664 39.4553 132.664 38.736C132.508 38.9787 132.283 39.1693 131.988 39.308C131.694 39.4467 131.36 39.516 130.987 39.516C130.164 39.516 129.501 39.256 128.998 38.736C128.496 38.216 128.244 37.4663 128.244 36.487C128.244 35.837 128.379 35.2737 128.647 34.797C128.925 34.3117 129.315 33.939 129.817 33.679C130.329 33.419 130.922 33.289 131.598 33.289C132.968 33.289 133.917 33.692 134.445 34.498C134.983 35.304 135.251 36.4523 135.251 37.943C135.251 39.659 134.987 40.946 134.458 41.804C133.938 42.662 133.059 43.091 131.819 43.091C131.135 43.091 130.545 42.948 130.051 42.662C129.557 42.376 129.176 42.0033 128.907 41.544C128.647 41.076 128.5 40.5733 128.465 40.036H131.156ZM131.702 37.306C131.936 37.306 132.123 37.241 132.261 37.111C132.4 36.981 132.469 36.799 132.469 36.565C132.469 36.305 132.4 36.1143 132.261 35.993C132.131 35.863 131.945 35.798 131.702 35.798C131.46 35.798 131.269 35.863 131.13 35.993C131 36.1143 130.935 36.305 130.935 36.565C130.935 36.799 131.005 36.981 131.143 37.111C131.282 37.241 131.468 37.306 131.702 37.306ZM139.355 40.699L138.016 44.56H136.196L136.807 40.699H139.355ZM145.683 34.017H147.061V35.369C147.061 38.151 145.93 40.868 143.668 41.895L142.693 40.53C144.708 39.633 145.683 37.41 145.683 35.369V34.017ZM146.073 34.017H147.438V35.369C147.438 37.319 148.4 39.399 150.415 40.231L149.479 41.596C147.191 40.608 146.073 38.047 146.073 35.369V34.017ZM143.174 33.276H149.921V34.693H143.174V33.276ZM151.039 32.119H152.781V44.157H151.039V32.119ZM162.465 32.119H164.181V44.157H162.465V32.119ZM163.791 36.812H165.923V38.255H163.791V36.812ZM154.691 33.9H161.698V35.278H154.691V33.9ZM158.214 35.954C159.969 35.954 161.269 37.15 161.269 38.827C161.269 40.504 159.969 41.7 158.214 41.7C156.459 41.7 155.159 40.504 155.159 38.827C155.159 37.15 156.459 35.954 158.214 35.954ZM158.214 37.358C157.395 37.358 156.81 37.904 156.81 38.827C156.81 39.75 157.395 40.296 158.214 40.296C159.033 40.296 159.618 39.75 159.618 38.827C159.618 37.904 159.033 37.358 158.214 37.358ZM157.343 32.314H159.072V34.42H157.343V32.314ZM168.521 36.201V33.497H172.928V43H169.899V36.201H168.521ZM174.103 38.06H184.984V39.425H174.103V38.06ZM178.679 32.158H180.395V33.926H178.679V32.158ZM178.575 34.004H180.096V34.238C180.096 36.058 178.354 37.345 175.065 37.566L174.558 36.266C177.457 36.097 178.575 35.148 178.575 34.238V34.004ZM178.978 34.004H180.499V34.238C180.499 35.148 181.617 36.097 184.516 36.266L184.009 37.566C180.72 37.345 178.978 36.058 178.978 34.238V34.004ZM175.143 33.198H183.944V34.537H175.143V33.198ZM179.524 40.075C182.15 40.075 183.697 40.803 183.697 42.116C183.697 43.442 182.15 44.157 179.524 44.157C176.898 44.157 175.338 43.442 175.338 42.116C175.338 40.803 176.898 40.075 179.524 40.075ZM179.524 41.349C177.886 41.349 177.093 41.57 177.093 42.116C177.093 42.649 177.886 42.883 179.524 42.883C181.149 42.883 181.955 42.649 181.955 42.116C181.955 41.57 181.149 41.349 179.524 41.349ZM188.115 40.699C189.276 39.8323 190.195 39.048 190.871 38.346C191.547 37.6353 191.885 36.9723 191.885 36.357C191.885 36.149 191.837 35.9887 191.742 35.876C191.655 35.7633 191.538 35.707 191.391 35.707C191.218 35.707 191.079 35.798 190.975 35.98C190.88 36.1533 190.845 36.422 190.871 36.786H188.076C188.102 35.98 188.275 35.317 188.596 34.797C188.925 34.277 189.35 33.8957 189.87 33.653C190.39 33.4103 190.962 33.289 191.586 33.289C192.695 33.289 193.506 33.5577 194.017 34.095C194.537 34.6237 194.797 35.304 194.797 36.136C194.797 37.0113 194.515 37.8347 193.952 38.606C193.397 39.3687 192.7 40.0143 191.859 40.543H194.836V42.87H188.115V40.699ZM195.699 36.474C195.725 35.4427 196.024 34.654 196.596 34.108C197.177 33.562 197.996 33.289 199.053 33.289C199.738 33.289 200.323 33.406 200.808 33.64C201.294 33.874 201.658 34.1903 201.9 34.589C202.152 34.9877 202.277 35.4383 202.277 35.941C202.277 36.5477 202.134 37.0243 201.848 37.371C201.562 37.709 201.242 37.9387 200.886 38.06V38.112C201.926 38.502 202.446 39.2257 202.446 40.283C202.446 40.8377 202.316 41.3273 202.056 41.752C201.796 42.1767 201.424 42.506 200.938 42.74C200.462 42.974 199.894 43.091 199.235 43.091C198.109 43.091 197.225 42.8223 196.583 42.285C195.942 41.7477 195.613 40.907 195.595 39.763H198.403C198.386 40.075 198.429 40.3133 198.533 40.478C198.646 40.634 198.837 40.712 199.105 40.712C199.261 40.712 199.391 40.6557 199.495 40.543C199.599 40.4217 199.651 40.2657 199.651 40.075C199.651 39.8323 199.569 39.6503 199.404 39.529C199.248 39.399 198.98 39.334 198.598 39.334H198.117V37.007H198.585C199.175 37.0417 199.469 36.8077 199.469 36.305C199.469 36.0883 199.422 35.928 199.326 35.824C199.24 35.72 199.127 35.668 198.988 35.668C198.668 35.668 198.507 35.9367 198.507 36.474H195.699ZM205.049 37.774C204.703 37.5747 204.43 37.3147 204.23 36.994C204.04 36.6647 203.944 36.2747 203.944 35.824C203.944 35.356 204.07 34.9313 204.321 34.55C204.573 34.1687 204.954 33.8653 205.465 33.64C205.985 33.406 206.622 33.289 207.376 33.289C208.13 33.289 208.763 33.406 209.274 33.64C209.794 33.8653 210.18 34.1687 210.431 34.55C210.683 34.9313 210.808 35.356 210.808 35.824C210.808 36.2747 210.709 36.6647 210.509 36.994C210.319 37.3147 210.05 37.5747 209.703 37.774C210.579 38.2853 211.016 39.0523 211.016 40.075C211.016 40.7337 210.852 41.2927 210.522 41.752C210.193 42.2113 209.751 42.558 209.196 42.792C208.642 43.026 208.035 43.143 207.376 43.143C206.718 43.143 206.111 43.026 205.556 42.792C205.002 42.558 204.56 42.2113 204.23 41.752C203.901 41.2927 203.736 40.7337 203.736 40.075C203.736 39.0523 204.174 38.2853 205.049 37.774ZM207.974 36.305C207.974 36.0623 207.918 35.8717 207.805 35.733C207.693 35.5857 207.55 35.512 207.376 35.512C207.203 35.512 207.06 35.5857 206.947 35.733C206.835 35.8717 206.778 36.0623 206.778 36.305C206.778 36.5563 206.835 36.747 206.947 36.877C207.06 37.007 207.203 37.072 207.376 37.072C207.55 37.072 207.693 37.007 207.805 36.877C207.918 36.747 207.974 36.5563 207.974 36.305ZM207.376 39.009C207.116 39.009 206.908 39.0957 206.752 39.269C206.605 39.4337 206.531 39.646 206.531 39.906C206.531 40.166 206.605 40.3783 206.752 40.543C206.9 40.7077 207.108 40.79 207.376 40.79C207.645 40.79 207.853 40.7077 208 40.543C208.148 40.3783 208.221 40.166 208.221 39.906C208.221 39.646 208.143 39.4337 207.987 39.269C207.84 39.0957 207.636 39.009 207.376 39.009ZM212.644 33.614H222.576V34.992H212.644V33.614ZM212.189 41.557H223.083V42.948H212.189V41.557ZM216.752 39.971H218.468V42.103H216.752V39.971ZM217.597 35.512C220.106 35.512 221.679 36.383 221.679 37.865C221.679 39.347 220.106 40.218 217.597 40.218C215.088 40.218 213.515 39.347 213.515 37.865C213.515 36.383 215.088 35.512 217.597 35.512ZM217.597 36.851C216.089 36.851 215.283 37.176 215.283 37.865C215.283 38.554 216.089 38.866 217.597 38.866C219.105 38.866 219.911 38.554 219.911 37.865C219.911 37.176 219.105 36.851 217.597 36.851ZM216.752 32.249H218.468V34.472H216.752V32.249Z" fill="#5E626F"/>
<path d="M4.596 4.192H5.976V4.516C5.976 6.472 4.38 8.068 1.56 8.452L0.972 7.204C3.42 6.904 4.596 5.656 4.596 4.516V4.192ZM5.052 4.192H6.432V4.516C6.432 5.656 7.608 6.904 10.056 7.204L9.48 8.452C6.648 8.068 5.052 6.472 5.052 4.516V4.192ZM4.68 10H6.264V14.08H4.68V10ZM0.492 9.088H10.536V10.36H0.492V9.088ZM1.38 3.52H9.624V4.78H1.38V3.52ZM11.5311 11.464H21.5871V12.772H11.5311V11.464ZM15.7071 8.992H17.2911V11.812H15.7071V8.992ZM15.6471 3.568H17.0391V4.372C17.0391 6.736 15.3231 8.824 12.4191 9.352L11.7591 8.02C14.2911 7.612 15.6471 5.908 15.6471 4.372V3.568ZM15.9591 3.568H17.3511V4.372C17.3511 5.944 18.7071 7.612 21.2511 8.02L20.5911 9.352C17.6751 8.812 15.9591 6.772 15.9591 4.372V3.568ZM30.1652 11.716H27.3332L26.9132 13H24.1172L27.2252 4.504H30.2972L33.3932 13H30.5852L30.1652 11.716ZM29.5172 9.712L28.7492 7.348L27.9812 9.712H29.5172ZM37.5384 4.504C38.4264 4.504 39.2024 4.684 39.8664 5.044C40.5384 5.404 41.0544 5.904 41.4144 6.544C41.7744 7.184 41.9544 7.912 41.9544 8.728C41.9544 9.536 41.7744 10.264 41.4144 10.912C41.0544 11.56 40.5384 12.072 39.8664 12.448C39.2024 12.816 38.4264 13 37.5384 13H33.9984V4.504H37.5384ZM37.2984 10.624C37.8984 10.624 38.3744 10.46 38.7264 10.132C39.0784 9.804 39.2544 9.336 39.2544 8.728C39.2544 8.12 39.0784 7.652 38.7264 7.324C38.3744 6.996 37.8984 6.832 37.2984 6.832H36.6624V10.624H37.2984ZM46.4564 4.504C47.3444 4.504 48.1204 4.684 48.7844 5.044C49.4564 5.404 49.9724 5.904 50.3324 6.544C50.6924 7.184 50.8724 7.912 50.8724 8.728C50.8724 9.536 50.6924 10.264 50.3324 10.912C49.9724 11.56 49.4564 12.072 48.7844 12.448C48.1204 12.816 47.3444 13 46.4564 13H42.9164V4.504H46.4564ZM46.2164 10.624C46.8164 10.624 47.2924 10.46 47.6444 10.132C47.9964 9.804 48.1724 9.336 48.1724 8.728C48.1724 8.12 47.9964 7.652 47.6444 7.324C47.2924 6.996 46.8164 6.832 46.2164 6.832H45.5804V10.624H46.2164ZM56.1064 13L54.5104 9.952H54.4984V13H51.8344V4.504H55.7944C56.4824 4.504 57.0704 4.628 57.5584 4.876C58.0464 5.116 58.4104 5.448 58.6504 5.872C58.8984 6.288 59.0224 6.76 59.0224 7.288C59.0224 7.856 58.8624 8.36 58.5424 8.8C58.2304 9.24 57.7784 9.556 57.1864 9.748L59.0344 13H56.1064ZM54.4984 8.176H55.5544C55.8104 8.176 56.0024 8.12 56.1304 8.008C56.2584 7.888 56.3224 7.704 56.3224 7.456C56.3224 7.232 56.2544 7.056 56.1184 6.928C55.9904 6.8 55.8024 6.736 55.5544 6.736H54.4984V8.176ZM62.5374 6.628V7.672H65.1774V9.676H62.5374V10.876H65.5374V13H59.8734V4.504H65.5374V6.628H62.5374ZM69.8654 13.084C68.8494 13.084 68.0094 12.848 67.3454 12.376C66.6894 11.896 66.3334 11.196 66.2774 10.276H69.1094C69.1494 10.764 69.3654 11.008 69.7574 11.008C69.9014 11.008 70.0214 10.976 70.1174 10.912C70.2214 10.84 70.2734 10.732 70.2734 10.588C70.2734 10.388 70.1654 10.228 69.9494 10.108C69.7334 9.98 69.3974 9.836 68.9414 9.676C68.3974 9.484 67.9454 9.296 67.5854 9.112C67.2334 8.928 66.9294 8.66 66.6734 8.308C66.4174 7.956 66.2934 7.504 66.3014 6.952C66.3014 6.4 66.4414 5.932 66.7214 5.548C67.0094 5.156 67.3974 4.86 67.8854 4.66C68.3814 4.46 68.9374 4.36 69.5534 4.36C70.5934 4.36 71.4174 4.6 72.0254 5.08C72.6414 5.56 72.9654 6.236 72.9974 7.108H70.1294C70.1214 6.868 70.0614 6.696 69.9494 6.592C69.8374 6.488 69.7014 6.436 69.5414 6.436C69.4294 6.436 69.3374 6.476 69.2654 6.556C69.1934 6.628 69.1574 6.732 69.1574 6.868C69.1574 7.06 69.2614 7.22 69.4694 7.348C69.6854 7.468 70.0254 7.616 70.4894 7.792C71.0254 7.992 71.4654 8.184 71.8094 8.368C72.1614 8.552 72.4654 8.808 72.7214 9.136C72.9774 9.464 73.1054 9.876 73.1054 10.372C73.1054 10.892 72.9774 11.36 72.7214 11.776C72.4654 12.184 72.0934 12.504 71.6054 12.736C71.1174 12.968 70.5374 13.084 69.8654 13.084ZM77.3654 13.084C76.3494 13.084 75.5094 12.848 74.8454 12.376C74.1894 11.896 73.8334 11.196 73.7774 10.276H76.6094C76.6494 10.764 76.8654 11.008 77.2574 11.008C77.4014 11.008 77.5214 10.976 77.6174 10.912C77.7214 10.84 77.7734 10.732 77.7734 10.588C77.7734 10.388 77.6654 10.228 77.4494 10.108C77.2334 9.98 76.8974 9.836 76.4414 9.676C75.8974 9.484 75.4454 9.296 75.0854 9.112C74.7334 8.928 74.4294 8.66 74.1734 8.308C73.9174 7.956 73.7934 7.504 73.8014 6.952C73.8014 6.4 73.9414 5.932 74.2214 5.548C74.5094 5.156 74.8974 4.86 75.3854 4.66C75.8814 4.46 76.4374 4.36 77.0534 4.36C78.0934 4.36 78.9174 4.6 79.5254 5.08C80.1414 5.56 80.4654 6.236 80.4974 7.108H77.6294C77.6214 6.868 77.5614 6.696 77.4494 6.592C77.3374 6.488 77.2014 6.436 77.0414 6.436C76.9294 6.436 76.8374 6.476 76.7654 6.556C76.6934 6.628 76.6574 6.732 76.6574 6.868C76.6574 7.06 76.7614 7.22 76.9694 7.348C77.1854 7.468 77.5254 7.616 77.9894 7.792C78.5254 7.992 78.9654 8.184 79.3094 8.368C79.6614 8.552 79.9654 8.808 80.2214 9.136C80.4774 9.464 80.6054 9.876 80.6054 10.372C80.6054 10.892 80.4774 11.36 80.2214 11.776C79.9654 12.184 79.5934 12.504 79.1054 12.736C78.6174 12.968 78.0374 13.084 77.3654 13.084Z" fill="#343741"/>
<path d="M4.485 58.796C5.447 58.796 6.28767 58.991 7.007 59.381C7.735 59.771 8.294 60.3127 8.684 61.006C9.074 61.6993 9.269 62.488 9.269 63.372C9.269 64.2473 9.074 65.036 8.684 65.738C8.294 66.44 7.735 66.9947 7.007 67.402C6.28767 67.8007 5.447 68 4.485 68H0.65V58.796H4.485ZM4.225 65.426C4.875 65.426 5.39067 65.2483 5.772 64.893C6.15333 64.5377 6.344 64.0307 6.344 63.372C6.344 62.7133 6.15333 62.2063 5.772 61.851C5.39067 61.4957 4.875 61.318 4.225 61.318H3.536V65.426H4.225ZM15.9791 62.371V64.75H9.92113V62.371H15.9791ZM17.2814 61.201V58.497H21.6884V68H18.6594V61.201H17.2814ZM22.9288 61.474C22.9548 60.4427 23.2538 59.654 23.8258 59.108C24.4064 58.562 25.2254 58.289 26.2828 58.289C26.9674 58.289 27.5524 58.406 28.0378 58.64C28.5231 58.874 28.8871 59.1903 29.1298 59.589C29.3811 59.9877 29.5067 60.4383 29.5067 60.941C29.5067 61.5477 29.3638 62.0243 29.0778 62.371C28.7918 62.709 28.4711 62.9387 28.1158 63.06V63.112C29.1558 63.502 29.6758 64.2257 29.6758 65.283C29.6758 65.8377 29.5458 66.3273 29.2858 66.752C29.0258 67.1767 28.6531 67.506 28.1678 67.74C27.6911 67.974 27.1234 68.091 26.4648 68.091C25.3381 68.091 24.4541 67.8223 23.8128 67.285C23.1714 66.7477 22.8421 65.907 22.8248 64.763H25.6328C25.6154 65.075 25.6588 65.3133 25.7628 65.478C25.8754 65.634 26.0661 65.712 26.3348 65.712C26.4908 65.712 26.6208 65.6557 26.7248 65.543C26.8288 65.4217 26.8808 65.2657 26.8808 65.075C26.8808 64.8323 26.7984 64.6503 26.6338 64.529C26.4778 64.399 26.2091 64.334 25.8278 64.334H25.3468V62.007H25.8148C26.4041 62.0417 26.6988 61.8077 26.6988 61.305C26.6988 61.0883 26.6511 60.928 26.5558 60.824C26.4691 60.72 26.3564 60.668 26.2178 60.668C25.8971 60.668 25.7368 60.9367 25.7368 61.474H22.9288ZM32.2788 62.774C31.9321 62.5747 31.6591 62.3147 31.4598 61.994C31.2691 61.6647 31.1738 61.2747 31.1738 60.824C31.1738 60.356 31.2995 59.9313 31.5508 59.55C31.8021 59.1687 32.1835 58.8653 32.6948 58.64C33.2148 58.406 33.8518 58.289 34.6058 58.289C35.3598 58.289 35.9925 58.406 36.5038 58.64C37.0238 58.8653 37.4095 59.1687 37.6608 59.55C37.9121 59.9313 38.0378 60.356 38.0378 60.824C38.0378 61.2747 37.9381 61.6647 37.7388 61.994C37.5481 62.3147 37.2795 62.5747 36.9328 62.774C37.8081 63.2853 38.2458 64.0523 38.2458 65.075C38.2458 65.7337 38.0811 66.2927 37.7518 66.752C37.4225 67.2113 36.9805 67.558 36.4258 67.792C35.8711 68.026 35.2645 68.143 34.6058 68.143C33.9471 68.143 33.3405 68.026 32.7858 67.792C32.2311 67.558 31.7891 67.2113 31.4598 66.752C31.1305 66.2927 30.9658 65.7337 30.9658 65.075C30.9658 64.0523 31.4035 63.2853 32.2788 62.774ZM35.2038 61.305C35.2038 61.0623 35.1475 60.8717 35.0348 60.733C34.9221 60.5857 34.7791 60.512 34.6058 60.512C34.4325 60.512 34.2895 60.5857 34.1768 60.733C34.0641 60.8717 34.0078 61.0623 34.0078 61.305C34.0078 61.5563 34.0641 61.747 34.1768 61.877C34.2895 62.007 34.4325 62.072 34.6058 62.072C34.7791 62.072 34.9221 62.007 35.0348 61.877C35.1475 61.747 35.2038 61.5563 35.2038 61.305ZM34.6058 64.009C34.3458 64.009 34.1378 64.0957 33.9818 64.269C33.8345 64.4337 33.7608 64.646 33.7608 64.906C33.7608 65.166 33.8345 65.3783 33.9818 65.543C34.1291 65.7077 34.3371 65.79 34.6058 65.79C34.8745 65.79 35.0825 65.7077 35.2298 65.543C35.3771 65.3783 35.4508 65.166 35.4508 64.906C35.4508 64.646 35.3728 64.4337 35.2168 64.269C35.0695 64.0957 34.8658 64.009 34.6058 64.009ZM42.6297 65.699L41.2907 69.56H39.4707L40.0817 65.699H42.6297ZM49.7891 68.091C48.6884 68.091 47.7784 67.8353 47.0591 67.324C46.3484 66.804 45.9628 66.0457 45.9021 65.049H48.9701C49.0134 65.5777 49.2474 65.842 49.6721 65.842C49.8281 65.842 49.9581 65.8073 50.0621 65.738C50.1748 65.66 50.2311 65.543 50.2311 65.387C50.2311 65.1703 50.1141 64.997 49.8801 64.867C49.6461 64.7283 49.2821 64.5723 48.7881 64.399C48.1988 64.191 47.7091 63.9873 47.3191 63.788C46.9378 63.5887 46.6084 63.2983 46.3311 62.917C46.0538 62.5357 45.9194 62.046 45.9281 61.448C45.9281 60.85 46.0798 60.343 46.3831 59.927C46.6951 59.5023 47.1154 59.1817 47.6441 58.965C48.1814 58.7483 48.7838 58.64 49.4511 58.64C50.5778 58.64 51.4704 58.9 52.1291 59.42C52.7964 59.94 53.1474 60.6723 53.1821 61.617H50.0751C50.0664 61.357 50.0014 61.1707 49.8801 61.058C49.7588 60.9453 49.6114 60.889 49.4381 60.889C49.3168 60.889 49.2171 60.9323 49.1391 61.019C49.0611 61.097 49.0221 61.2097 49.0221 61.357C49.0221 61.565 49.1348 61.7383 49.3601 61.877C49.5941 62.007 49.9624 62.1673 50.4651 62.358C51.0458 62.5747 51.5224 62.7827 51.8951 62.982C52.2764 63.1813 52.6058 63.4587 52.8831 63.814C53.1604 64.1693 53.2991 64.6157 53.2991 65.153C53.2991 65.7163 53.1604 66.2233 52.8831 66.674C52.6058 67.116 52.2028 67.4627 51.6741 67.714C51.1454 67.9653 50.5171 68.091 49.7891 68.091ZM58.8761 65.543V68H57.7841C55.7734 68 54.7681 66.999 54.7681 64.997V63.073H53.8581V60.668H54.7681V58.9H57.6541V60.668H58.8501V63.073H57.6541V65.049C57.6541 65.2223 57.6931 65.348 57.7711 65.426C57.8578 65.504 57.9964 65.543 58.1871 65.543H58.8761ZM62.8612 62.02C63.1559 61.5953 63.5155 61.2573 63.9402 61.006C64.3649 60.746 64.8069 60.616 65.2662 60.616V63.697H64.4472C63.9012 63.697 63.4982 63.7923 63.2382 63.983C62.9869 64.1737 62.8612 64.5117 62.8612 64.997V68H59.9752V60.668H62.8612V62.02ZM73.1416 64.269C73.1416 64.4683 73.1286 64.659 73.1026 64.841H68.4616C68.5049 65.4737 68.7692 65.79 69.2546 65.79C69.5666 65.79 69.7919 65.647 69.9306 65.361H72.9856C72.8816 65.881 72.6606 66.349 72.3226 66.765C71.9932 67.1723 71.5729 67.4973 71.0616 67.74C70.5589 67.974 70.0042 68.091 69.3976 68.091C68.6696 68.091 68.0196 67.9393 67.4476 67.636C66.8842 67.3327 66.4422 66.8993 66.1216 66.336C65.8096 65.764 65.6536 65.0967 65.6536 64.334C65.6536 63.5713 65.8096 62.9083 66.1216 62.345C66.4422 61.773 66.8842 61.3353 67.4476 61.032C68.0196 60.7287 68.6696 60.577 69.3976 60.577C70.1256 60.577 70.7712 60.7287 71.3346 61.032C71.9066 61.3267 72.3486 61.7513 72.6606 62.306C72.9812 62.8607 73.1416 63.515 73.1416 64.269ZM70.2166 63.58C70.2166 63.3373 70.1386 63.1553 69.9826 63.034C69.8266 62.904 69.6316 62.839 69.3976 62.839C68.8862 62.839 68.5872 63.086 68.5006 63.58H70.2166ZM81.1523 64.269C81.1523 64.4683 81.1393 64.659 81.1133 64.841H76.4723C76.5156 65.4737 76.78 65.79 77.2653 65.79C77.5773 65.79 77.8026 65.647 77.9413 65.361H80.9963C80.8923 65.881 80.6713 66.349 80.3333 66.765C80.004 67.1723 79.5836 67.4973 79.0723 67.74C78.5696 67.974 78.015 68.091 77.4083 68.091C76.6803 68.091 76.0303 67.9393 75.4583 67.636C74.895 67.3327 74.453 66.8993 74.1323 66.336C73.8203 65.764 73.6643 65.0967 73.6643 64.334C73.6643 63.5713 73.8203 62.9083 74.1323 62.345C74.453 61.773 74.895 61.3353 75.4583 61.032C76.0303 60.7287 76.6803 60.577 77.4083 60.577C78.1363 60.577 78.782 60.7287 79.3453 61.032C79.9173 61.3267 80.3593 61.7513 80.6713 62.306C80.992 62.8607 81.1523 63.515 81.1523 64.269ZM78.2273 63.58C78.2273 63.3373 78.1493 63.1553 77.9933 63.034C77.8373 62.904 77.6423 62.839 77.4083 62.839C76.897 62.839 76.598 63.086 76.5113 63.58H78.2273ZM86.628 65.543V68H85.536C83.5254 68 82.52 66.999 82.52 64.997V63.073H81.61V60.668H82.52V58.9H85.406V60.668H86.602V63.073H85.406V65.049C85.406 65.2223 85.445 65.348 85.523 65.426C85.6097 65.504 85.7484 65.543 85.939 65.543H86.628ZM95.0711 60.616C95.9118 60.616 96.5661 60.8977 97.0341 61.461C97.5108 62.0243 97.7491 62.787 97.7491 63.749V68H94.8761V64.113C94.8761 63.7663 94.7808 63.4933 94.5901 63.294C94.4081 63.086 94.1611 62.982 93.8491 62.982C93.5285 62.982 93.2771 63.086 93.0951 63.294C92.9131 63.4933 92.8221 63.7663 92.8221 64.113V68H89.9361V60.668H92.8221V61.786C93.0475 61.4393 93.3465 61.1577 93.7191 60.941C94.1005 60.7243 94.5511 60.616 95.0711 60.616ZM106.762 60.668V68H103.876V66.882C103.65 67.2287 103.347 67.5103 102.966 67.727C102.593 67.9437 102.147 68.052 101.627 68.052C100.786 68.052 100.127 67.7703 99.6506 67.207C99.1826 66.6437 98.9486 65.881 98.9486 64.919V60.668H101.822V64.555C101.822 64.9017 101.913 65.179 102.095 65.387C102.285 65.5863 102.537 65.686 102.849 65.686C103.169 65.686 103.421 65.5863 103.603 65.387C103.785 65.179 103.876 64.9017 103.876 64.555V60.668H106.762ZM117.854 60.616C118.79 60.616 119.514 60.8977 120.025 61.461C120.545 62.0243 120.805 62.787 120.805 63.749V68H117.932V64.113C117.932 63.801 117.837 63.5583 117.646 63.385C117.464 63.203 117.217 63.112 116.905 63.112C116.584 63.112 116.333 63.203 116.151 63.385C115.969 63.5583 115.878 63.801 115.878 64.113V68H113.005V64.113C113.005 63.801 112.91 63.5583 112.719 63.385C112.537 63.203 112.29 63.112 111.978 63.112C111.657 63.112 111.406 63.203 111.224 63.385C111.042 63.5583 110.951 63.801 110.951 64.113V68H108.065V60.668H110.951V61.656C111.159 61.344 111.441 61.0927 111.796 60.902C112.16 60.7113 112.585 60.616 113.07 60.616C113.599 60.616 114.067 60.733 114.474 60.967C114.881 61.1923 115.206 61.513 115.449 61.929C115.718 61.5477 116.06 61.2357 116.476 60.993C116.892 60.7417 117.351 60.616 117.854 60.616ZM124.941 61.669C125.123 61.331 125.383 61.0667 125.721 60.876C126.068 60.6767 126.48 60.577 126.956 60.577C127.528 60.577 128.044 60.7287 128.503 61.032C128.963 61.3267 129.322 61.76 129.582 62.332C129.851 62.8953 129.985 63.5627 129.985 64.334C129.985 65.1053 129.851 65.777 129.582 66.349C129.322 66.9123 128.963 67.3457 128.503 67.649C128.044 67.9437 127.528 68.091 126.956 68.091C126.48 68.091 126.068 67.9957 125.721 67.805C125.383 67.6057 125.123 67.337 124.941 66.999V68H122.055V58.38H124.941V61.669ZM127.06 64.334C127.06 63.944 126.961 63.6407 126.761 63.424C126.562 63.2073 126.306 63.099 125.994 63.099C125.682 63.099 125.427 63.2073 125.227 63.424C125.028 63.6407 124.928 63.944 124.928 64.334C124.928 64.724 125.028 65.0273 125.227 65.244C125.427 65.4607 125.682 65.569 125.994 65.569C126.306 65.569 126.562 65.4607 126.761 65.244C126.961 65.0273 127.06 64.724 127.06 64.334ZM137.989 64.269C137.989 64.4683 137.976 64.659 137.95 64.841H133.309C133.353 65.4737 133.617 65.79 134.102 65.79C134.414 65.79 134.64 65.647 134.778 65.361H137.833C137.729 65.881 137.508 66.349 137.17 66.765C136.841 67.1723 136.421 67.4973 135.909 67.74C135.407 67.974 134.852 68.091 134.245 68.091C133.517 68.091 132.867 67.9393 132.295 67.636C131.732 67.3327 131.29 66.8993 130.969 66.336C130.657 65.764 130.501 65.0967 130.501 64.334C130.501 63.5713 130.657 62.9083 130.969 62.345C131.29 61.773 131.732 61.3353 132.295 61.032C132.867 60.7287 133.517 60.577 134.245 60.577C134.973 60.577 135.619 60.7287 136.182 61.032C136.754 61.3267 137.196 61.7513 137.508 62.306C137.829 62.8607 137.989 63.515 137.989 64.269ZM135.064 63.58C135.064 63.3373 134.986 63.1553 134.83 63.034C134.674 62.904 134.479 62.839 134.245 62.839C133.734 62.839 133.435 63.086 133.348 63.58H135.064ZM141.788 62.02C142.083 61.5953 142.442 61.2573 142.867 61.006C143.292 60.746 143.734 60.616 144.193 60.616V63.697H143.374C142.828 63.697 142.425 63.7923 142.165 63.983C141.914 64.1737 141.788 64.5117 141.788 64.997V68H138.902V60.668H141.788V62.02ZM146.659 61.201V58.497H151.066V68H148.037V61.201H146.659ZM151.852 61.201V58.497H156.259V68H153.23V61.201H151.852ZM160.658 65.699L159.319 69.56H157.499L158.11 65.699H160.658ZM170.638 58.796V64.737C170.638 65.8377 170.348 66.674 169.767 67.246C169.195 67.8093 168.389 68.091 167.349 68.091C166.231 68.091 165.343 67.7833 164.684 67.168C164.026 66.5527 163.696 65.6557 163.696 64.477H166.543C166.543 64.8497 166.604 65.114 166.725 65.27C166.847 65.4173 167.011 65.491 167.219 65.491C167.393 65.491 167.527 65.4347 167.622 65.322C167.718 65.2093 167.765 65.0143 167.765 64.737V58.796H170.638ZM171.494 64.334C171.494 63.5627 171.624 62.8953 171.884 62.332C172.153 61.76 172.517 61.3267 172.976 61.032C173.436 60.7287 173.951 60.577 174.523 60.577C175 60.577 175.412 60.6767 175.758 60.876C176.105 61.0667 176.369 61.331 176.551 61.669V60.668H179.424V68H176.551V66.999C176.369 67.337 176.105 67.6057 175.758 67.805C175.412 67.9957 175 68.091 174.523 68.091C173.951 68.091 173.436 67.9437 172.976 67.649C172.517 67.3457 172.153 66.9123 171.884 66.349C171.624 65.777 171.494 65.1053 171.494 64.334ZM176.551 64.334C176.551 63.944 176.452 63.6407 176.252 63.424C176.053 63.2073 175.797 63.099 175.485 63.099C175.173 63.099 174.918 63.2073 174.718 63.424C174.519 63.6407 174.419 63.944 174.419 64.334C174.419 64.724 174.519 65.0273 174.718 65.244C174.918 65.4607 175.173 65.569 175.485 65.569C175.797 65.569 176.053 65.4607 176.252 65.244C176.452 65.0273 176.551 64.724 176.551 64.334ZM183.359 60.577C183.836 60.577 184.248 60.6767 184.594 60.876C184.941 61.0667 185.205 61.331 185.387 61.669V60.668H188.26V67.87C188.26 68.5547 188.135 69.1787 187.883 69.742C187.632 70.3053 187.225 70.756 186.661 71.094C186.107 71.432 185.392 71.601 184.516 71.601C183.338 71.601 182.402 71.3237 181.708 70.769C181.024 70.223 180.634 69.4777 180.538 68.533H183.372C183.45 68.9143 183.762 69.105 184.308 69.105C184.646 69.105 184.911 69.0183 185.101 68.845C185.292 68.6717 185.387 68.3467 185.387 67.87V66.999C185.205 67.337 184.941 67.6057 184.594 67.805C184.248 67.9957 183.836 68.091 183.359 68.091C182.787 68.091 182.272 67.9437 181.812 67.649C181.353 67.3457 180.989 66.9123 180.72 66.349C180.46 65.777 180.33 65.1053 180.33 64.334C180.33 63.5627 180.46 62.8953 180.72 62.332C180.989 61.76 181.353 61.3267 181.812 61.032C182.272 60.7287 182.787 60.577 183.359 60.577ZM185.387 64.334C185.387 63.944 185.288 63.6407 185.088 63.424C184.889 63.2073 184.633 63.099 184.321 63.099C184.009 63.099 183.754 63.2073 183.554 63.424C183.355 63.6407 183.255 63.944 183.255 64.334C183.255 64.724 183.355 65.0273 183.554 65.244C183.754 65.4607 184.009 65.569 184.321 65.569C184.633 65.569 184.889 65.4607 185.088 65.244C185.288 65.0273 185.387 64.724 185.387 64.334ZM190.986 60.083C190.484 60.083 190.081 59.9487 189.777 59.68C189.474 59.4113 189.322 59.0733 189.322 58.666C189.322 58.25 189.474 57.9077 189.777 57.639C190.081 57.3617 190.484 57.223 190.986 57.223C191.48 57.223 191.879 57.3617 192.182 57.639C192.486 57.9077 192.637 58.25 192.637 58.666C192.637 59.0733 192.486 59.4113 192.182 59.68C191.879 59.9487 191.48 60.083 190.986 60.083ZM192.442 68.507C192.442 70.509 191.437 71.51 189.426 71.51H188.464V69.053H189.023C189.214 69.053 189.348 69.014 189.426 68.936C189.513 68.858 189.556 68.7323 189.556 68.559V60.668H192.442V68.507ZM200.818 64.269C200.818 64.4683 200.805 64.659 200.779 64.841H196.138C196.182 65.4737 196.446 65.79 196.931 65.79C197.243 65.79 197.469 65.647 197.607 65.361H200.662C200.558 65.881 200.337 66.349 199.999 66.765C199.67 67.1723 199.25 67.4973 198.738 67.74C198.236 67.974 197.681 68.091 197.074 68.091C196.346 68.091 195.696 67.9393 195.124 67.636C194.561 67.3327 194.119 66.8993 193.798 66.336C193.486 65.764 193.33 65.0967 193.33 64.334C193.33 63.5713 193.486 62.9083 193.798 62.345C194.119 61.773 194.561 61.3353 195.124 61.032C195.696 60.7287 196.346 60.577 197.074 60.577C197.802 60.577 198.448 60.7287 199.011 61.032C199.583 61.3267 200.025 61.7513 200.337 62.306C200.658 62.8607 200.818 63.515 200.818 64.269ZM197.893 63.58C197.893 63.3373 197.815 63.1553 197.659 63.034C197.503 62.904 197.308 62.839 197.074 62.839C196.563 62.839 196.264 63.086 196.177 63.58H197.893ZM208.829 64.269C208.829 64.4683 208.816 64.659 208.79 64.841H204.149C204.192 65.4737 204.457 65.79 204.942 65.79C205.254 65.79 205.479 65.647 205.618 65.361H208.673C208.569 65.881 208.348 66.349 208.01 66.765C207.681 67.1723 207.26 67.4973 206.749 67.74C206.246 67.974 205.692 68.091 205.085 68.091C204.357 68.091 203.707 67.9393 203.135 67.636C202.572 67.3327 202.13 66.8993 201.809 66.336C201.497 65.764 201.341 65.0967 201.341 64.334C201.341 63.5713 201.497 62.9083 201.809 62.345C202.13 61.773 202.572 61.3353 203.135 61.032C203.707 60.7287 204.357 60.577 205.085 60.577C205.813 60.577 206.459 60.7287 207.022 61.032C207.594 61.3267 208.036 61.7513 208.348 62.306C208.669 62.8607 208.829 63.515 208.829 64.269ZM205.904 63.58C205.904 63.3373 205.826 63.1553 205.67 63.034C205.514 62.904 205.319 62.839 205.085 62.839C204.574 62.839 204.275 63.086 204.188 63.58H205.904ZM214.305 65.543V68H213.213C211.202 68 210.197 66.999 210.197 64.997V63.073H209.287V60.668H210.197V58.9H213.083V60.668H214.279V63.073H213.083V65.049C213.083 65.2223 213.122 65.348 213.2 65.426C213.286 65.504 213.425 65.543 213.616 65.543H214.305ZM226.44 68H223.554L220.499 63.372V68H217.613V58.796H220.499L223.554 63.502V58.796H226.44V68ZM227.354 64.334C227.354 63.5627 227.484 62.8953 227.744 62.332C228.012 61.76 228.376 61.3267 228.836 61.032C229.295 60.7287 229.811 60.577 230.383 60.577C230.859 60.577 231.271 60.6767 231.618 60.876C231.964 61.0667 232.229 61.331 232.411 61.669V60.668H235.284V68H232.411V66.999C232.229 67.337 231.964 67.6057 231.618 67.805C231.271 67.9957 230.859 68.091 230.383 68.091C229.811 68.091 229.295 67.9437 228.836 67.649C228.376 67.3457 228.012 66.9123 227.744 66.349C227.484 65.777 227.354 65.1053 227.354 64.334ZM232.411 64.334C232.411 63.944 232.311 63.6407 232.112 63.424C231.912 63.2073 231.657 63.099 231.345 63.099C231.033 63.099 230.777 63.2073 230.578 63.424C230.378 63.6407 230.279 63.944 230.279 64.334C230.279 64.724 230.378 65.0273 230.578 65.244C230.777 65.4607 231.033 65.569 231.345 65.569C231.657 65.569 231.912 65.4607 232.112 65.244C232.311 65.0273 232.411 64.724 232.411 64.334ZM239.219 60.577C239.695 60.577 240.107 60.6767 240.454 60.876C240.8 61.0667 241.065 61.331 241.247 61.669V60.668H244.12V67.87C244.12 68.5547 243.994 69.1787 243.743 69.742C243.491 70.3053 243.084 70.756 242.521 71.094C241.966 71.432 241.251 71.601 240.376 71.601C239.197 71.601 238.261 71.3237 237.568 70.769C236.883 70.223 236.493 69.4777 236.398 68.533H239.232C239.31 68.9143 239.622 69.105 240.168 69.105C240.506 69.105 240.77 69.0183 240.961 68.845C241.151 68.6717 241.247 68.3467 241.247 67.87V66.999C241.065 67.337 240.8 67.6057 240.454 67.805C240.107 67.9957 239.695 68.091 239.219 68.091C238.647 68.091 238.131 67.9437 237.672 67.649C237.212 67.3457 236.848 66.9123 236.58 66.349C236.32 65.777 236.19 65.1053 236.19 64.334C236.19 63.5627 236.32 62.8953 236.58 62.332C236.848 61.76 237.212 61.3267 237.672 61.032C238.131 60.7287 238.647 60.577 239.219 60.577ZM241.247 64.334C241.247 63.944 241.147 63.6407 240.948 63.424C240.748 63.2073 240.493 63.099 240.181 63.099C239.869 63.099 239.613 63.2073 239.414 63.424C239.214 63.6407 239.115 63.944 239.115 64.334C239.115 64.724 239.214 65.0273 239.414 65.244C239.613 65.4607 239.869 65.569 240.181 65.569C240.493 65.569 240.748 65.4607 240.948 65.244C241.147 65.0273 241.247 64.724 241.247 64.334ZM245.026 64.334C245.026 63.5627 245.156 62.8953 245.416 62.332C245.684 61.76 246.048 61.3267 246.508 61.032C246.967 60.7287 247.483 60.577 248.055 60.577C248.531 60.577 248.943 60.6767 249.29 60.876C249.636 61.0667 249.901 61.331 250.083 61.669V60.668H252.956V68H250.083V66.999C249.901 67.337 249.636 67.6057 249.29 67.805C248.943 67.9957 248.531 68.091 248.055 68.091C247.483 68.091 246.967 67.9437 246.508 67.649C246.048 67.3457 245.684 66.9123 245.416 66.349C245.156 65.777 245.026 65.1053 245.026 64.334ZM250.083 64.334C250.083 63.944 249.983 63.6407 249.784 63.424C249.584 63.2073 249.329 63.099 249.017 63.099C248.705 63.099 248.449 63.2073 248.25 63.424C248.05 63.6407 247.951 63.944 247.951 64.334C247.951 64.724 248.05 65.0273 248.25 65.244C248.449 65.4607 248.705 65.569 249.017 65.569C249.329 65.569 249.584 65.4607 249.784 65.244C249.983 65.0273 250.083 64.724 250.083 64.334ZM257.138 62.02C257.432 61.5953 257.792 61.2573 258.217 61.006C258.641 60.746 259.083 60.616 259.543 60.616V63.697H258.724C258.178 63.697 257.775 63.7923 257.515 63.983C257.263 64.1737 257.138 64.5117 257.138 64.997V68H254.252V60.668H257.138V62.02ZM263.414 65.699L262.075 69.56H260.255L260.866 65.699H263.414ZM275.799 68H272.913L269.858 63.372V68H266.972V58.796H269.858L272.913 63.502V58.796H275.799V68ZM280.587 68.091C279.85 68.091 279.187 67.9393 278.598 67.636C278.009 67.3327 277.545 66.8993 277.207 66.336C276.878 65.764 276.713 65.0967 276.713 64.334C276.713 63.5713 276.878 62.9083 277.207 62.345C277.545 61.773 278.009 61.3353 278.598 61.032C279.187 60.7287 279.85 60.577 280.587 60.577C281.324 60.577 281.987 60.7287 282.576 61.032C283.165 61.3353 283.625 61.773 283.954 62.345C284.292 62.9083 284.461 63.5713 284.461 64.334C284.461 65.0967 284.292 65.764 283.954 66.336C283.625 66.8993 283.165 67.3327 282.576 67.636C281.987 67.9393 281.324 68.091 280.587 68.091ZM280.587 65.595C280.856 65.595 281.081 65.491 281.263 65.283C281.445 65.0663 281.536 64.75 281.536 64.334C281.536 63.918 281.445 63.606 281.263 63.398C281.081 63.1813 280.856 63.073 280.587 63.073C280.318 63.073 280.093 63.1813 279.911 63.398C279.729 63.606 279.638 63.918 279.638 64.334C279.638 64.75 279.725 65.0663 279.898 65.283C280.08 65.491 280.31 65.595 280.587 65.595ZM288.254 62.02C288.548 61.5953 288.908 61.2573 289.333 61.006C289.757 60.746 290.199 60.616 290.659 60.616V63.697H289.84C289.294 63.697 288.891 63.7923 288.631 63.983C288.379 64.1737 288.254 64.5117 288.254 64.997V68H285.368V60.668H288.254V62.02ZM295.999 65.543V68H294.907C292.896 68 291.891 66.999 291.891 64.997V63.073H290.981V60.668H291.891V58.9H294.777V60.668H295.973V63.073H294.777V65.049C294.777 65.2223 294.816 65.348 294.894 65.426C294.981 65.504 295.119 65.543 295.31 65.543H295.999ZM302.233 60.616C303.074 60.616 303.728 60.8977 304.196 61.461C304.673 62.0243 304.911 62.787 304.911 63.749V68H302.038V64.113C302.038 63.7663 301.943 63.4933 301.752 63.294C301.57 63.086 301.323 62.982 301.011 62.982C300.691 62.982 300.439 63.086 300.257 63.294C300.075 63.4933 299.984 63.7663 299.984 64.113V68H297.098V58.38H299.984V61.786C300.21 61.4393 300.509 61.1577 300.881 60.941C301.263 60.7243 301.713 60.616 302.233 60.616ZM3.536 81.097V82.228H6.396V84.399H3.536V85.699H6.786V88H0.65V78.796H6.786V81.097H3.536ZM7.48363 84.334C7.48363 83.5627 7.61363 82.8953 7.87363 82.332C8.1423 81.76 8.5063 81.3267 8.96563 81.032C9.42497 80.7287 9.94063 80.577 10.5126 80.577C10.9893 80.577 11.401 80.6767 11.7476 80.876C12.0943 81.0667 12.3586 81.331 12.5406 81.669V80.668H15.4136V88H12.5406V86.999C12.3586 87.337 12.0943 87.6057 11.7476 87.805C11.401 87.9957 10.9893 88.091 10.5126 88.091C9.94063 88.091 9.42497 87.9437 8.96563 87.649C8.5063 87.3457 8.1423 86.9123 7.87363 86.349C7.61363 85.777 7.48363 85.1053 7.48363 84.334ZM12.5406 84.334C12.5406 83.944 12.441 83.6407 12.2416 83.424C12.0423 83.2073 11.7866 83.099 11.4746 83.099C11.1626 83.099 10.907 83.2073 10.7076 83.424C10.5083 83.6407 10.4086 83.944 10.4086 84.334C10.4086 84.724 10.5083 85.0273 10.7076 85.244C10.907 85.4607 11.1626 85.569 11.4746 85.569C11.7866 85.569 12.0423 85.4607 12.2416 85.244C12.441 85.0273 12.5406 84.724 12.5406 84.334ZM19.9726 88.091C19.2792 88.091 18.6639 87.9783 18.1266 87.753C17.5979 87.5277 17.1776 87.2157 16.8656 86.817C16.5536 86.4183 16.3759 85.9677 16.3326 85.465H19.1016C19.1362 85.6817 19.2272 85.842 19.3746 85.946C19.5306 86.05 19.7256 86.102 19.9596 86.102C20.1069 86.102 20.2239 86.0717 20.3106 86.011C20.3972 85.9417 20.4406 85.8593 20.4406 85.764C20.4406 85.5993 20.3496 85.4823 20.1676 85.413C19.9856 85.3437 19.6779 85.2657 19.2446 85.179C18.7159 85.075 18.2782 84.9623 17.9316 84.841C17.5936 84.7197 17.2946 84.5117 17.0346 84.217C16.7832 83.9223 16.6576 83.515 16.6576 82.995C16.6576 82.5443 16.7746 82.137 17.0086 81.773C17.2512 81.4003 17.6066 81.11 18.0746 80.902C18.5426 80.6853 19.1102 80.577 19.7776 80.577C20.7656 80.577 21.5369 80.8197 22.0916 81.305C22.6549 81.7903 22.9929 82.423 23.1056 83.203H20.5446C20.5012 83.0037 20.4102 82.852 20.2716 82.748C20.1329 82.6353 19.9466 82.579 19.7126 82.579C19.5652 82.579 19.4526 82.6093 19.3746 82.67C19.2966 82.722 19.2576 82.8043 19.2576 82.917C19.2576 83.0643 19.3486 83.177 19.5306 83.255C19.7126 83.3243 20.0029 83.398 20.4016 83.476C20.9302 83.58 21.3766 83.697 21.7406 83.827C22.1046 83.957 22.4209 84.1823 22.6896 84.503C22.9582 84.815 23.0926 85.2483 23.0926 85.803C23.0926 86.2363 22.9669 86.6263 22.7156 86.973C22.4642 87.3197 22.1002 87.5927 21.6236 87.792C21.1556 87.9913 20.6052 88.091 19.9726 88.091ZM28.8009 85.543V88H27.7089C25.6982 88 24.6929 86.999 24.6929 84.997V83.073H23.7829V80.668H24.6929V78.9H27.5789V80.668H28.7749V83.073H27.5789V85.049C27.5789 85.2223 27.6179 85.348 27.6959 85.426C27.7826 85.504 27.9212 85.543 28.1119 85.543H28.8009ZM35.944 78.796C36.906 78.796 37.7467 78.991 38.466 79.381C39.194 79.771 39.753 80.3127 40.143 81.006C40.533 81.6993 40.728 82.488 40.728 83.372C40.728 84.2473 40.533 85.036 40.143 85.738C39.753 86.44 39.194 86.9947 38.466 87.402C37.7467 87.8007 36.906 88 35.944 88H32.109V78.796H35.944ZM35.684 85.426C36.334 85.426 36.8497 85.2483 37.231 84.893C37.6123 84.5377 37.803 84.0307 37.803 83.372C37.803 82.7133 37.6123 82.2063 37.231 81.851C36.8497 81.4957 36.334 81.318 35.684 81.318H34.995V85.426H35.684ZM48.8681 84.269C48.8681 84.4683 48.8551 84.659 48.8291 84.841H44.1881C44.2315 85.4737 44.4958 85.79 44.9811 85.79C45.2931 85.79 45.5185 85.647 45.6571 85.361H48.7121C48.6081 85.881 48.3871 86.349 48.0491 86.765C47.7198 87.1723 47.2995 87.4973 46.7881 87.74C46.2855 87.974 45.7308 88.091 45.1241 88.091C44.3961 88.091 43.7461 87.9393 43.1741 87.636C42.6108 87.3327 42.1688 86.8993 41.8481 86.336C41.5361 85.764 41.3801 85.0967 41.3801 84.334C41.3801 83.5713 41.5361 82.9083 41.8481 82.345C42.1688 81.773 42.6108 81.3353 43.1741 81.032C43.7461 80.7287 44.3961 80.577 45.1241 80.577C45.8521 80.577 46.4978 80.7287 47.0611 81.032C47.6331 81.3267 48.0751 81.7513 48.3871 82.306C48.7078 82.8607 48.8681 83.515 48.8681 84.269ZM45.9431 83.58C45.9431 83.3373 45.8651 83.1553 45.7091 83.034C45.5531 82.904 45.3581 82.839 45.1241 82.839C44.6128 82.839 44.3138 83.086 44.2271 83.58H45.9431ZM52.6669 78.38V88H49.7809V78.38H52.6669ZM59.1053 80.616C59.946 80.616 60.6003 80.8977 61.0683 81.461C61.545 82.0243 61.7833 82.787 61.7833 83.749V88H58.9103V84.113C58.9103 83.7663 58.815 83.4933 58.6243 83.294C58.4423 83.086 58.1953 82.982 57.8833 82.982C57.5626 82.982 57.3113 83.086 57.1293 83.294C56.9473 83.4933 56.8563 83.7663 56.8563 84.113V88H53.9703V78.38H56.8563V81.786C57.0816 81.4393 57.3806 81.1577 57.7533 80.941C58.1346 80.7243 58.5853 80.616 59.1053 80.616ZM64.4908 80.083C63.9881 80.083 63.5851 79.9487 63.2818 79.68C62.9784 79.4113 62.8268 79.0733 62.8268 78.666C62.8268 78.25 62.9784 77.9077 63.2818 77.639C63.5851 77.3617 63.9881 77.223 64.4908 77.223C64.9848 77.223 65.3834 77.3617 65.6868 77.639C65.9901 77.9077 66.1418 78.25 66.1418 78.666C66.1418 79.0733 65.9901 79.4113 65.6868 79.68C65.3834 79.9487 64.9848 80.083 64.4908 80.083ZM65.9208 80.668V88H63.0348V80.668H65.9208ZM70.3182 85.699L68.9792 89.56H67.1592L67.7702 85.699H70.3182ZM82.7036 88H79.8176L76.7626 83.372V88H73.8766V78.796H76.7626L79.8176 83.502V78.796H82.7036V88ZM91.1054 84.269C91.1054 84.4683 91.0924 84.659 91.0664 84.841H86.4254C86.4688 85.4737 86.7331 85.79 87.2184 85.79C87.5304 85.79 87.7558 85.647 87.8944 85.361H90.9494C90.8454 85.881 90.6244 86.349 90.2864 86.765C89.9571 87.1723 89.5368 87.4973 89.0254 87.74C88.5228 87.974 87.9681 88.091 87.3614 88.091C86.6334 88.091 85.9834 87.9393 85.4114 87.636C84.8481 87.3327 84.4061 86.8993 84.0854 86.336C83.7734 85.764 83.6174 85.0967 83.6174 84.334C83.6174 83.5713 83.7734 82.9083 84.0854 82.345C84.4061 81.773 84.8481 81.3353 85.4114 81.032C85.9834 80.7287 86.6334 80.577 87.3614 80.577C88.0894 80.577 88.7351 80.7287 89.2984 81.032C89.8704 81.3267 90.3124 81.7513 90.6244 82.306C90.9451 82.8607 91.1054 83.515 91.1054 84.269ZM88.1804 83.58C88.1804 83.3373 88.1024 83.1553 87.9464 83.034C87.7904 82.904 87.5954 82.839 87.3614 82.839C86.8501 82.839 86.5511 83.086 86.4644 83.58H88.1804ZM103.146 80.668L101.404 88H98.1542L97.2702 83.866L96.3342 88H93.0842L91.3552 80.668H94.2152L94.8262 85.127L95.7752 80.668H98.8562L99.8572 85.179L100.481 80.668H103.146ZM109.805 78.796C110.767 78.796 111.608 78.991 112.327 79.381C113.055 79.771 113.614 80.3127 114.004 81.006C114.394 81.6993 114.589 82.488 114.589 83.372C114.589 84.2473 114.394 85.036 114.004 85.738C113.614 86.44 113.055 86.9947 112.327 87.402C111.608 87.8007 110.767 88 109.805 88H105.97V78.796H109.805ZM109.545 85.426C110.195 85.426 110.711 85.2483 111.092 84.893C111.474 84.5377 111.664 84.0307 111.664 83.372C111.664 82.7133 111.474 82.2063 111.092 81.851C110.711 81.4957 110.195 81.318 109.545 81.318H108.856V85.426H109.545ZM122.729 84.269C122.729 84.4683 122.716 84.659 122.69 84.841H118.049C118.093 85.4737 118.357 85.79 118.842 85.79C119.154 85.79 119.38 85.647 119.518 85.361H122.573C122.469 85.881 122.248 86.349 121.91 86.765C121.581 87.1723 121.161 87.4973 120.649 87.74C120.147 87.974 119.592 88.091 118.985 88.091C118.257 88.091 117.607 87.9393 117.035 87.636C116.472 87.3327 116.03 86.8993 115.709 86.336C115.397 85.764 115.241 85.0967 115.241 84.334C115.241 83.5713 115.397 82.9083 115.709 82.345C116.03 81.773 116.472 81.3353 117.035 81.032C117.607 80.7287 118.257 80.577 118.985 80.577C119.713 80.577 120.359 80.7287 120.922 81.032C121.494 81.3267 121.936 81.7513 122.248 82.306C122.569 82.8607 122.729 83.515 122.729 84.269ZM119.804 83.58C119.804 83.3373 119.726 83.1553 119.57 83.034C119.414 82.904 119.219 82.839 118.985 82.839C118.474 82.839 118.175 83.086 118.088 83.58H119.804ZM126.528 78.38V88H123.642V78.38H126.528ZM132.967 80.616C133.807 80.616 134.462 80.8977 134.93 81.461C135.406 82.0243 135.645 82.787 135.645 83.749V88H132.772V84.113C132.772 83.7663 132.676 83.4933 132.486 83.294C132.304 83.086 132.057 82.982 131.745 82.982C131.424 82.982 131.173 83.086 130.991 83.294C130.809 83.4933 130.718 83.7663 130.718 84.113V88H127.832V78.38H130.718V81.786C130.943 81.4393 131.242 81.1577 131.615 80.941C131.996 80.7243 132.447 80.616 132.967 80.616ZM138.352 80.083C137.849 80.083 137.446 79.9487 137.143 79.68C136.84 79.4113 136.688 79.0733 136.688 78.666C136.688 78.25 136.84 77.9077 137.143 77.639C137.446 77.3617 137.849 77.223 138.352 77.223C138.846 77.223 139.245 77.3617 139.548 77.639C139.851 77.9077 140.003 78.25 140.003 78.666C140.003 79.0733 139.851 79.4113 139.548 79.68C139.245 79.9487 138.846 80.083 138.352 80.083ZM139.782 80.668V88H136.896V80.668H139.782ZM144.18 85.699L142.841 89.56H141.021L141.632 85.699H144.18ZM0.13 101.201V98.497H4.537V108H1.508V101.201H0.13ZM5.32238 101.201V98.497H9.72938V108H6.70038V101.201H5.32238ZM10.8008 103.112C10.8008 101.613 11.1171 100.434 11.7498 99.576C12.3911 98.718 13.3748 98.289 14.7008 98.289C16.0181 98.289 16.9974 98.7223 17.6388 99.589C18.2801 100.447 18.6008 101.621 18.6008 103.112C18.6008 104.611 18.2801 105.794 17.6388 106.661C16.9974 107.519 16.0181 107.948 14.7008 107.948C13.3748 107.948 12.3911 107.519 11.7498 106.661C11.1171 105.794 10.8008 104.611 10.8008 103.112ZM15.7538 103.112C15.7538 102.419 15.6844 101.899 15.5458 101.552C15.4071 101.197 15.1254 101.019 14.7008 101.019C14.2674 101.019 13.9814 101.197 13.8428 101.552C13.7041 101.899 13.6348 102.419 13.6348 103.112C13.6348 103.814 13.7041 104.343 13.8428 104.698C13.9814 105.045 14.2674 105.218 14.7008 105.218C15.1254 105.218 15.4071 105.045 15.5458 104.698C15.6844 104.343 15.7538 103.814 15.7538 103.112ZM19.4082 103.112C19.4082 101.613 19.7245 100.434 20.3572 99.576C20.9985 98.718 21.9822 98.289 23.3082 98.289C24.6255 98.289 25.6049 98.7223 26.2462 99.589C26.8875 100.447 27.2082 101.621 27.2082 103.112C27.2082 104.611 26.8875 105.794 26.2462 106.661C25.6049 107.519 24.6255 107.948 23.3082 107.948C21.9822 107.948 20.9985 107.519 20.3572 106.661C19.7245 105.794 19.4082 104.611 19.4082 103.112ZM24.3612 103.112C24.3612 102.419 24.2919 101.899 24.1532 101.552C24.0145 101.197 23.7329 101.019 23.3082 101.019C22.8749 101.019 22.5889 101.197 22.4502 101.552C22.3115 101.899 22.2422 102.419 22.2422 103.112C22.2422 103.814 22.3115 104.343 22.4502 104.698C22.5889 105.045 22.8749 105.218 23.3082 105.218C23.7329 105.218 24.0145 105.045 24.1532 104.698C24.2919 104.343 24.3612 103.814 24.3612 103.112ZM35.1916 101.032H31.4216V102.124C31.5863 101.977 31.7986 101.86 32.0586 101.773C32.3273 101.686 32.6263 101.643 32.9556 101.643C33.5449 101.643 34.0433 101.782 34.4506 102.059C34.8579 102.336 35.1613 102.709 35.3606 103.177C35.5599 103.636 35.6596 104.148 35.6596 104.711C35.6596 105.751 35.3649 106.561 34.7756 107.142C34.1949 107.714 33.3933 108 32.3706 108C31.6253 108 30.9796 107.87 30.4336 107.61C29.8963 107.35 29.4846 106.99 29.1986 106.531C28.9213 106.072 28.7913 105.547 28.8086 104.958H31.6166C31.6166 105.097 31.6643 105.227 31.7596 105.348C31.8549 105.469 32.0109 105.53 32.2276 105.53C32.4443 105.53 32.6046 105.452 32.7086 105.296C32.8126 105.14 32.8646 104.928 32.8646 104.659C32.8646 104.408 32.8039 104.217 32.6826 104.087C32.5699 103.957 32.4053 103.892 32.1886 103.892C32.0066 103.892 31.8679 103.935 31.7726 104.022C31.6773 104.109 31.6296 104.208 31.6296 104.321H28.8216V98.497H35.1916V101.032ZM36.7666 101.474C36.7926 100.443 37.0916 99.654 37.6636 99.108C38.2443 98.562 39.0633 98.289 40.1206 98.289C40.8053 98.289 41.3903 98.406 41.8756 98.64C42.361 98.874 42.725 99.1903 42.9676 99.589C43.219 99.9877 43.3446 100.438 43.3446 100.941C43.3446 101.548 43.2016 102.024 42.9156 102.371C42.6296 102.709 42.309 102.939 41.9536 103.06V103.112C42.9936 103.502 43.5136 104.226 43.5136 105.283C43.5136 105.838 43.3836 106.327 43.1236 106.752C42.8636 107.177 42.491 107.506 42.0056 107.74C41.529 107.974 40.9613 108.091 40.3026 108.091C39.176 108.091 38.292 107.822 37.6506 107.285C37.0093 106.748 36.68 105.907 36.6626 104.763H39.4706C39.4533 105.075 39.4966 105.313 39.6006 105.478C39.7133 105.634 39.904 105.712 40.1726 105.712C40.3286 105.712 40.4586 105.656 40.5626 105.543C40.6666 105.422 40.7186 105.266 40.7186 105.075C40.7186 104.832 40.6363 104.65 40.4716 104.529C40.3156 104.399 40.047 104.334 39.6656 104.334H39.1846V102.007H39.6526C40.242 102.042 40.5366 101.808 40.5366 101.305C40.5366 101.088 40.489 100.928 40.3936 100.824C40.307 100.72 40.1943 100.668 40.0556 100.668C39.735 100.668 39.5746 100.937 39.5746 101.474H36.7666ZM49.9247 98.796V108H47.0387V98.796H49.9247ZM56.3631 100.616C57.2038 100.616 57.8581 100.898 58.3261 101.461C58.8028 102.024 59.0411 102.787 59.0411 103.749V108H56.1681V104.113C56.1681 103.766 56.0728 103.493 55.8821 103.294C55.7001 103.086 55.4531 102.982 55.1411 102.982C54.8205 102.982 54.5691 103.086 54.3871 103.294C54.2051 103.493 54.1141 103.766 54.1141 104.113V108H51.2281V100.668H54.1141V101.786C54.3395 101.439 54.6385 101.158 55.0111 100.941C55.3925 100.724 55.8431 100.616 56.3631 100.616ZM59.9026 104.334C59.9026 103.563 60.0326 102.895 60.2926 102.332C60.5612 101.76 60.9252 101.327 61.3846 101.032C61.8439 100.729 62.3596 100.577 62.9316 100.577C63.4082 100.577 63.8156 100.677 64.1536 100.876C64.5002 101.067 64.7646 101.331 64.9466 101.669V98.38H67.8326V108H64.9466V106.999C64.7646 107.337 64.5002 107.606 64.1536 107.805C63.8156 107.996 63.4082 108.091 62.9316 108.091C62.3596 108.091 61.8439 107.944 61.3846 107.649C60.9252 107.346 60.5612 106.912 60.2926 106.349C60.0326 105.777 59.9026 105.105 59.9026 104.334ZM64.9596 104.334C64.9596 103.944 64.8599 103.641 64.6606 103.424C64.4612 103.207 64.2056 103.099 63.8936 103.099C63.5816 103.099 63.3259 103.207 63.1266 103.424C62.9272 103.641 62.8276 103.944 62.8276 104.334C62.8276 104.724 62.9272 105.027 63.1266 105.244C63.3259 105.461 63.5816 105.569 63.8936 105.569C64.2056 105.569 64.4612 105.461 64.6606 105.244C64.8599 105.027 64.9596 104.724 64.9596 104.334ZM70.5845 100.083C70.0818 100.083 69.6788 99.9487 69.3755 99.68C69.0722 99.4113 68.9205 99.0733 68.9205 98.666C68.9205 98.25 69.0722 97.9077 69.3755 97.639C69.6788 97.3617 70.0818 97.223 70.5845 97.223C71.0785 97.223 71.4772 97.3617 71.7805 97.639C72.0838 97.9077 72.2355 98.25 72.2355 98.666C72.2355 99.0733 72.0838 99.4113 71.7805 99.68C71.4772 99.9487 71.0785 100.083 70.5845 100.083ZM72.0145 100.668V108H69.1285V100.668H72.0145ZM72.928 104.334C72.928 103.563 73.058 102.895 73.318 102.332C73.5866 101.76 73.9506 101.327 74.41 101.032C74.8693 100.729 75.385 100.577 75.957 100.577C76.4336 100.577 76.8453 100.677 77.192 100.876C77.5386 101.067 77.803 101.331 77.985 101.669V100.668H80.858V108H77.985V106.999C77.803 107.337 77.5386 107.606 77.192 107.805C76.8453 107.996 76.4336 108.091 75.957 108.091C75.385 108.091 74.8693 107.944 74.41 107.649C73.9506 107.346 73.5866 106.912 73.318 106.349C73.058 105.777 72.928 105.105 72.928 104.334ZM77.985 104.334C77.985 103.944 77.8853 103.641 77.686 103.424C77.4866 103.207 77.231 103.099 76.919 103.099C76.607 103.099 76.3513 103.207 76.152 103.424C75.9526 103.641 75.853 103.944 75.853 104.334C75.853 104.724 75.9526 105.027 76.152 105.244C76.3513 105.461 76.607 105.569 76.919 105.569C77.231 105.569 77.4866 105.461 77.686 105.244C77.8853 105.027 77.985 104.724 77.985 104.334Z" fill="#5E626F"/>
</svg>
