<svg width="161" height="73" viewBox="0 0 161 73" fill="none" xmlns="http://www.w3.org/2000/svg">
<path d="M0.676 41.57V39.165L4.55 33.64H7.657V39.074H8.593V41.57H7.657V43H4.745V41.57H0.676ZM4.979 36.929L3.575 39.074H4.979V36.929ZM9.51732 40.699C10.6787 39.8323 11.5973 39.048 12.2733 38.346C12.9493 37.6353 13.2873 36.9723 13.2873 36.357C13.2873 36.149 13.2397 35.9887 13.1443 35.876C13.0577 35.7633 12.9407 35.707 12.7933 35.707C12.62 35.707 12.4813 35.798 12.3773 35.98C12.282 36.1533 12.2473 36.422 12.2733 36.786H9.47832C9.50432 35.98 9.67765 35.317 9.99832 34.797C10.3277 34.277 10.7523 33.8957 11.2723 33.653C11.7923 33.4103 12.3643 33.289 12.9883 33.289C14.0977 33.289 14.908 33.5577 15.4193 34.095C15.9393 34.6237 16.1993 35.304 16.1993 36.136C16.1993 37.0113 15.9177 37.8347 15.3543 38.606C14.7997 39.3687 14.102 40.0143 13.2613 40.543H16.2383V42.87H9.51732V40.699ZM23.0426 35.616L20.0786 43H17.1146L20.1046 35.967H16.7506V33.497H23.0426V35.616ZM29.4869 37.371V39.75H23.4289V37.371H29.4869ZM32.5962 37.774C32.2495 37.5747 31.9765 37.3147 31.7772 36.994C31.5865 36.6647 31.4912 36.2747 31.4912 35.824C31.4912 35.356 31.6168 34.9313 31.8682 34.55C32.1195 34.1687 32.5008 33.8653 33.0122 33.64C33.5322 33.406 34.1692 33.289 34.9232 33.289C35.6772 33.289 36.3098 33.406 36.8212 33.64C37.3412 33.8653 37.7268 34.1687 37.9782 34.55C38.2295 34.9313 38.3552 35.356 38.3552 35.824C38.3552 36.2747 38.2555 36.6647 38.0562 36.994C37.8655 37.3147 37.5968 37.5747 37.2502 37.774C38.1255 38.2853 38.5632 39.0523 38.5632 40.075C38.5632 40.7337 38.3985 41.2927 38.0692 41.752C37.7398 42.2113 37.2978 42.558 36.7432 42.792C36.1885 43.026 35.5818 43.143 34.9232 43.143C34.2645 43.143 33.6578 43.026 33.1032 42.792C32.5485 42.558 32.1065 42.2113 31.7772 41.752C31.4478 41.2927 31.2832 40.7337 31.2832 40.075C31.2832 39.0523 31.7208 38.2853 32.5962 37.774ZM35.5212 36.305C35.5212 36.0623 35.4648 35.8717 35.3522 35.733C35.2395 35.5857 35.0965 35.512 34.9232 35.512C34.7498 35.512 34.6068 35.5857 34.4942 35.733C34.3815 35.8717 34.3252 36.0623 34.3252 36.305C34.3252 36.5563 34.3815 36.747 34.4942 36.877C34.6068 37.007 34.7498 37.072 34.9232 37.072C35.0965 37.072 35.2395 37.007 35.3522 36.877C35.4648 36.747 35.5212 36.5563 35.5212 36.305ZM34.9232 39.009C34.6632 39.009 34.4552 39.0957 34.2992 39.269C34.1518 39.4337 34.0782 39.646 34.0782 39.906C34.0782 40.166 34.1518 40.3783 34.2992 40.543C34.4465 40.7077 34.6545 40.79 34.9232 40.79C35.1918 40.79 35.3998 40.7077 35.5472 40.543C35.6945 40.3783 35.7682 40.166 35.7682 39.906C35.7682 39.646 35.6902 39.4337 35.5342 39.269C35.3868 39.0957 35.1832 39.009 34.9232 39.009ZM43.9481 36.383C43.8961 36.123 43.8181 35.9323 43.7141 35.811C43.6188 35.6897 43.4671 35.629 43.2591 35.629C42.9298 35.629 42.7088 35.798 42.5961 36.136C42.4921 36.4653 42.4401 36.981 42.4401 37.683C42.5961 37.4403 42.8215 37.2497 43.1161 37.111C43.4108 36.9723 43.7445 36.903 44.1171 36.903C44.9491 36.903 45.6121 37.1587 46.1061 37.67C46.6088 38.1813 46.8601 38.9223 46.8601 39.893C46.8601 40.543 46.7215 41.1107 46.4441 41.596C46.1755 42.0727 45.7898 42.441 45.2871 42.701C44.7845 42.961 44.1908 43.091 43.5061 43.091C42.1455 43.091 41.2008 42.675 40.6721 41.843C40.1435 41.0023 39.8791 39.828 39.8791 38.32C39.8791 37.1413 40.0005 36.188 40.2431 35.46C40.4858 34.732 40.8671 34.1947 41.3871 33.848C41.9158 33.5013 42.6005 33.328 43.4411 33.328C44.4725 33.328 45.2481 33.6227 45.7681 34.212C46.2968 34.8013 46.5871 35.525 46.6391 36.383H43.9481ZM43.4021 39.113C43.1681 39.113 42.9818 39.178 42.8431 39.308C42.7045 39.438 42.6351 39.62 42.6351 39.854C42.6351 40.114 42.7001 40.309 42.8301 40.439C42.9688 40.5603 43.1595 40.621 43.4021 40.621C43.6448 40.621 43.8311 40.5603 43.9611 40.439C44.0998 40.309 44.1691 40.114 44.1691 39.854C44.1691 39.62 44.0998 39.438 43.9611 39.308C43.8225 39.178 43.6361 39.113 43.4021 39.113ZM53.7477 37.371V39.75H47.6897V37.371H53.7477ZM55.3359 38.112C55.3359 36.6127 55.6523 35.434 56.2849 34.576C56.9263 33.718 57.9099 33.289 59.2359 33.289C60.5533 33.289 61.5326 33.7223 62.1739 34.589C62.8153 35.447 63.1359 36.6213 63.1359 38.112C63.1359 39.6113 62.8153 40.7943 62.1739 41.661C61.5326 42.519 60.5533 42.948 59.2359 42.948C57.9099 42.948 56.9263 42.519 56.2849 41.661C55.6523 40.7943 55.3359 39.6113 55.3359 38.112ZM60.2889 38.112C60.2889 37.4187 60.2196 36.8987 60.0809 36.552C59.9423 36.1967 59.6606 36.019 59.2359 36.019C58.8026 36.019 58.5166 36.1967 58.3779 36.552C58.2393 36.8987 58.1699 37.4187 58.1699 38.112C58.1699 38.814 58.2393 39.3427 58.3779 39.698C58.5166 40.0447 58.8026 40.218 59.2359 40.218C59.6606 40.218 59.9423 40.0447 60.0809 39.698C60.2196 39.3427 60.2889 38.814 60.2889 38.112ZM63.6573 36.201V33.497H68.0643V43H65.0353V36.201H63.6573ZM68.8497 36.201V33.497H73.2567V43H70.2277V36.201H68.8497ZM75.8491 37.774C75.5024 37.5747 75.2294 37.3147 75.0301 36.994C74.8394 36.6647 74.7441 36.2747 74.7441 35.824C74.7441 35.356 74.8698 34.9313 75.1211 34.55C75.3724 34.1687 75.7538 33.8653 76.2651 33.64C76.7851 33.406 77.4221 33.289 78.1761 33.289C78.9301 33.289 79.5628 33.406 80.0741 33.64C80.5941 33.8653 80.9798 34.1687 81.2311 34.55C81.4824 34.9313 81.6081 35.356 81.6081 35.824C81.6081 36.2747 81.5084 36.6647 81.3091 36.994C81.1184 37.3147 80.8498 37.5747 80.5031 37.774C81.3784 38.2853 81.8161 39.0523 81.8161 40.075C81.8161 40.7337 81.6514 41.2927 81.3221 41.752C80.9928 42.2113 80.5508 42.558 79.9961 42.792C79.4414 43.026 78.8348 43.143 78.1761 43.143C77.5174 43.143 76.9108 43.026 76.3561 42.792C75.8014 42.558 75.3594 42.2113 75.0301 41.752C74.7008 41.2927 74.5361 40.7337 74.5361 40.075C74.5361 39.0523 74.9738 38.2853 75.8491 37.774ZM78.7741 36.305C78.7741 36.0623 78.7178 35.8717 78.6051 35.733C78.4924 35.5857 78.3494 35.512 78.1761 35.512C78.0028 35.512 77.8598 35.5857 77.7471 35.733C77.6344 35.8717 77.5781 36.0623 77.5781 36.305C77.5781 36.5563 77.6344 36.747 77.7471 36.877C77.8598 37.007 78.0028 37.072 78.1761 37.072C78.3494 37.072 78.4924 37.007 78.6051 36.877C78.7178 36.747 78.7741 36.5563 78.7741 36.305ZM78.1761 39.009C77.9161 39.009 77.7081 39.0957 77.5521 39.269C77.4048 39.4337 77.3311 39.646 77.3311 39.906C77.3311 40.166 77.4048 40.3783 77.5521 40.543C77.6994 40.7077 77.9074 40.79 78.1761 40.79C78.4448 40.79 78.6528 40.7077 78.8001 40.543C78.9474 40.3783 79.0211 40.166 79.0211 39.906C79.0211 39.646 78.9431 39.4337 78.7871 39.269C78.6398 39.0957 78.4361 39.009 78.1761 39.009ZM88.9821 35.616L86.0181 43H83.0541L86.0441 35.967H82.6901V33.497H88.9821V35.616Z" fill="#5E626F"/>
<path d="M2.976 3.808H4.272V5.428C4.272 8.176 3.312 10.756 1.212 11.788L0.252 10.504C2.124 9.628 2.976 7.492 2.976 5.428V3.808ZM3.3 3.808H4.572V5.428C4.572 7.42 5.364 9.448 7.14 10.312L6.18 11.584C4.176 10.564 3.3 8.092 3.3 5.428V3.808ZM7.584 2.956H9.192V14.068H7.584V2.956ZM8.832 7.228H10.8V8.56H8.832V7.228ZM17.1351 5.404H19.9191V6.688H17.1351V5.404ZM14.5911 3.412C16.2591 3.412 17.5191 4.528 17.5191 6.064C17.5191 7.612 16.2591 8.716 14.5911 8.716C12.9111 8.716 11.6511 7.612 11.6511 6.064C11.6511 4.528 12.9111 3.412 14.5911 3.412ZM14.5911 4.744C13.7751 4.744 13.1751 5.236 13.1751 6.064C13.1751 6.892 13.7751 7.396 14.5911 7.396C15.4071 7.396 15.9951 6.892 15.9951 6.064C15.9951 5.236 15.4071 4.744 14.5911 4.744ZM19.2231 2.956H20.8191V8.932H19.2231V2.956ZM13.4391 9.412H15.0231V10.468H19.2351V9.412H20.8191V13.948H13.4391V9.412ZM15.0231 11.692V12.676H19.2351V11.692H15.0231ZM25.0541 4.708H26.3141V5.956C26.3141 8.464 25.2581 11.02 23.2181 11.98L22.3181 10.72C24.1541 9.856 25.0541 7.78 25.0541 5.956V4.708ZM25.3901 4.708H26.6501V5.956C26.6501 7.636 27.5141 9.604 29.3381 10.444L28.4621 11.704C26.4221 10.756 25.3901 8.32 25.3901 5.956V4.708ZM22.7501 4.024H28.8461V5.332H22.7501V4.024ZM29.6621 2.956H31.2701V14.068H29.6621V2.956ZM30.9101 7.192H32.8781V8.512H30.9101V7.192ZM33.6092 8.032H43.6652V9.328H33.6092V8.032ZM34.8212 6.004H42.5252V7.264H34.8212V6.004ZM34.8212 3.256H42.4652V4.528H36.4052V6.628H34.8212V3.256ZM38.6012 9.988C41.0012 9.988 42.4532 10.72 42.4532 12.028C42.4532 13.336 41.0012 14.068 38.6012 14.068C36.2012 14.068 34.7372 13.336 34.7372 12.028C34.7372 10.72 36.2012 9.988 38.6012 9.988ZM38.6012 11.188C37.1132 11.188 36.3572 11.464 36.3572 12.028C36.3572 12.604 37.1132 12.856 38.6012 12.856C40.0892 12.856 40.8452 12.604 40.8452 12.028C40.8452 11.464 40.0892 11.188 38.6012 11.188ZM44.6363 8.908H54.7043V10.18H44.6363V8.908ZM45.8723 3.172H53.4803V6.184H47.4683V7.384H45.8843V5.056H51.9083V4.384H45.8723V3.172ZM45.8843 6.904H53.6963V8.116H45.8843V6.904ZM48.8723 7.492H50.4683V9.604H48.8723V7.492ZM45.7523 10.804H53.5523V14.032H51.9563V12.064H45.7523V10.804ZM60.9313 5.908H63.7873V7.18H60.9313V5.908ZM63.3793 2.968H64.9753V11.164H63.3793V2.968ZM57.6193 12.604H65.2153V13.876H57.6193V12.604ZM57.6193 10.36H59.2273V13.336H57.6193V10.36ZM56.1433 3.688H57.7273V5.38H59.8393V3.688H61.3993V9.424H56.1433V3.688ZM57.7273 6.592V8.164H59.8393V6.592H57.7273ZM67.1464 4.336H76.3144V5.608H67.1464V4.336ZM66.7264 11.668H76.7824V12.952H66.7264V11.668ZM70.9384 10.204H72.5224V12.172H70.9384V10.204ZM71.7184 6.088C74.0344 6.088 75.4864 6.892 75.4864 8.26C75.4864 9.628 74.0344 10.432 71.7184 10.432C69.4024 10.432 67.9504 9.628 67.9504 8.26C67.9504 6.892 69.4024 6.088 71.7184 6.088ZM71.7184 7.324C70.3264 7.324 69.5824 7.624 69.5824 8.26C69.5824 8.896 70.3264 9.184 71.7184 9.184C73.1104 9.184 73.8544 8.896 73.8544 8.26C73.8544 7.624 73.1104 7.324 71.7184 7.324ZM70.9384 3.076H72.5224V5.128H70.9384V3.076ZM79.6725 8.74C79.6725 7.9 79.8405 7.152 80.1765 6.496C80.5205 5.84 81.0085 5.332 81.6405 4.972C82.2725 4.604 83.0165 4.42 83.8725 4.42C84.6085 4.42 85.2645 4.56 85.8405 4.84C86.4245 5.112 86.8965 5.5 87.2565 6.004C87.6245 6.508 87.8685 7.096 87.9885 7.768H85.1805C85.0525 7.488 84.8685 7.272 84.6285 7.12C84.3965 6.96 84.1285 6.88 83.8245 6.88C83.3765 6.88 83.0205 7.048 82.7565 7.384C82.5005 7.72 82.3725 8.172 82.3725 8.74C82.3725 9.308 82.5005 9.76 82.7565 10.096C83.0205 10.432 83.3765 10.6 83.8245 10.6C84.1285 10.6 84.3965 10.524 84.6285 10.372C84.8685 10.212 85.0525 9.992 85.1805 9.712H87.9885C87.8685 10.384 87.6245 10.972 87.2565 11.476C86.8965 11.98 86.4245 12.372 85.8405 12.652C85.2645 12.924 84.6085 13.06 83.8725 13.06C83.0165 13.06 82.2725 12.88 81.6405 12.52C81.0085 12.152 80.5205 11.64 80.1765 10.984C79.8405 10.328 79.6725 9.58 79.6725 8.74ZM91.6117 4.504V13H88.9477V4.504H91.6117ZM100.963 13H98.2988L95.4788 8.728V13H92.8148V4.504H95.4788L98.2988 8.848V4.504H100.963V13Z" fill="#343741"/>
<path d="M3.471 58.796V63.983C3.471 64.4077 3.562 64.7457 3.744 64.997C3.93467 65.2397 4.238 65.361 4.654 65.361C5.07 65.361 5.37767 65.2397 5.577 64.997C5.77633 64.7457 5.876 64.4077 5.876 63.983V58.796H8.749V63.983C8.749 64.8583 8.567 65.608 8.203 66.232C7.839 66.8473 7.34067 67.311 6.708 67.623C6.07533 67.935 5.369 68.091 4.589 68.091C3.809 68.091 3.11567 67.935 2.509 67.623C1.911 67.311 1.443 66.8473 1.105 66.232C0.767 65.6167 0.598 64.867 0.598 63.983V58.796H3.471ZM15.8698 60.616L12.9058 68H9.94175L12.9318 60.967H9.57775V58.497H15.8698V60.616ZM16.6721 66.57V64.165L20.5461 58.64H23.6531V64.074H24.5891V66.57H23.6531V68H20.7411V66.57H16.6721ZM20.9751 61.929L19.5711 64.074H20.9751V61.929ZM25.2794 61.201V58.497H29.6864V68H26.6574V61.201H25.2794ZM30.4718 61.201V58.497H34.8788V68H31.8498V61.201H30.4718ZM35.9502 63.112C35.9502 61.6127 36.2665 60.434 36.8992 59.576C37.5405 58.718 38.5242 58.289 39.8502 58.289C41.1675 58.289 42.1468 58.7223 42.7882 59.589C43.4295 60.447 43.7502 61.6213 43.7502 63.112C43.7502 64.6113 43.4295 65.7943 42.7882 66.661C42.1468 67.519 41.1675 67.948 39.8502 67.948C38.5242 67.948 37.5405 67.519 36.8992 66.661C36.2665 65.7943 35.9502 64.6113 35.9502 63.112ZM40.9032 63.112C40.9032 62.4187 40.8338 61.8987 40.6952 61.552C40.5565 61.1967 40.2748 61.019 39.8502 61.019C39.4168 61.019 39.1308 61.1967 38.9922 61.552C38.8535 61.8987 38.7842 62.4187 38.7842 63.112C38.7842 63.814 38.8535 64.3427 38.9922 64.698C39.1308 65.0447 39.4168 65.218 39.8502 65.218C40.2748 65.218 40.5565 65.0447 40.6952 64.698C40.8338 64.3427 40.9032 63.814 40.9032 63.112ZM48.6266 58.796C49.5886 58.796 50.4293 58.991 51.1486 59.381C51.8766 59.771 52.4356 60.3127 52.8256 61.006C53.2156 61.6993 53.4106 62.488 53.4106 63.372C53.4106 64.2473 53.2156 65.036 52.8256 65.738C52.4356 66.44 51.8766 66.9947 51.1486 67.402C50.4293 67.8007 49.5886 68 48.6266 68H44.7916V58.796H48.6266ZM48.3666 65.426C49.0166 65.426 49.5323 65.2483 49.9136 64.893C50.2949 64.5377 50.4856 64.0307 50.4856 63.372C50.4856 62.7133 50.2949 62.2063 49.9136 61.851C49.5323 61.4957 49.0166 61.318 48.3666 61.318H47.6776V65.426H48.3666ZM57.3387 65.816H60.1207V68H54.4527V58.796H57.3387V65.816ZM60.7429 65.699C61.9042 64.8323 62.8229 64.048 63.4989 63.346C64.1749 62.6353 64.5129 61.9723 64.5129 61.357C64.5129 61.149 64.4652 60.9887 64.3699 60.876C64.2832 60.7633 64.1662 60.707 64.0189 60.707C63.8456 60.707 63.7069 60.798 63.6029 60.98C63.5076 61.1533 63.4729 61.422 63.4989 61.786H60.7039C60.7299 60.98 60.9032 60.317 61.2239 59.797C61.5532 59.277 61.9779 58.8957 62.4979 58.653C63.0179 58.4103 63.5899 58.289 64.2139 58.289C65.3232 58.289 66.1336 58.5577 66.6449 59.095C67.1649 59.6237 67.4249 60.304 67.4249 61.136C67.4249 62.0113 67.1432 62.8347 66.5799 63.606C66.0252 64.3687 65.3276 65.0143 64.4869 65.543H67.4639V67.87H60.7429V65.699ZM68.1582 63.112C68.1582 61.6127 68.4745 60.434 69.1072 59.576C69.7485 58.718 70.7322 58.289 72.0582 58.289C73.3755 58.289 74.3549 58.7223 74.9962 59.589C75.6375 60.447 75.9582 61.6213 75.9582 63.112C75.9582 64.6113 75.6375 65.7943 74.9962 66.661C74.3549 67.519 73.3755 67.948 72.0582 67.948C70.7322 67.948 69.7485 67.519 69.1072 66.661C68.4745 65.7943 68.1582 64.6113 68.1582 63.112ZM73.1112 63.112C73.1112 62.4187 73.0419 61.8987 72.9032 61.552C72.7645 61.1967 72.4829 61.019 72.0582 61.019C71.6249 61.019 71.3389 61.1967 71.2002 61.552C71.0615 61.8987 70.9922 62.4187 70.9922 63.112C70.9922 63.814 71.0615 64.3427 71.2002 64.698C71.3389 65.0447 71.6249 65.218 72.0582 65.218C72.4829 65.218 72.7645 65.0447 72.9032 64.698C73.0419 64.3427 73.1112 63.814 73.1112 63.112ZM76.4796 61.201V58.497H80.8866V68H77.8576V61.201H76.4796ZM86.287 61.383C86.235 61.123 86.157 60.9323 86.053 60.811C85.9577 60.6897 85.806 60.629 85.598 60.629C85.2687 60.629 85.0477 60.798 84.935 61.136C84.831 61.4653 84.779 61.981 84.779 62.683C84.935 62.4403 85.1603 62.2497 85.455 62.111C85.7497 61.9723 86.0833 61.903 86.456 61.903C87.288 61.903 87.951 62.1587 88.445 62.67C88.9477 63.1813 89.199 63.9223 89.199 64.893C89.199 65.543 89.0603 66.1107 88.783 66.596C88.5143 67.0727 88.1287 67.441 87.626 67.701C87.1233 67.961 86.5297 68.091 85.845 68.091C84.4843 68.091 83.5397 67.675 83.011 66.843C82.4823 66.0023 82.218 64.828 82.218 63.32C82.218 62.1413 82.3393 61.188 82.582 60.46C82.8247 59.732 83.206 59.1947 83.726 58.848C84.2547 58.5013 84.9393 58.328 85.78 58.328C86.8113 58.328 87.587 58.6227 88.107 59.212C88.6357 59.8013 88.926 60.525 88.978 61.383H86.287ZM85.741 64.113C85.507 64.113 85.3207 64.178 85.182 64.308C85.0433 64.438 84.974 64.62 84.974 64.854C84.974 65.114 85.039 65.309 85.169 65.439C85.3077 65.5603 85.4983 65.621 85.741 65.621C85.9837 65.621 86.17 65.5603 86.3 65.439C86.4387 65.309 86.508 65.114 86.508 64.854C86.508 64.62 86.4387 64.438 86.3 64.308C86.1613 64.178 85.975 64.113 85.741 64.113ZM97.9456 61.955C97.9456 62.5357 97.8112 63.0643 97.5426 63.541C97.2739 64.009 96.8752 64.3817 96.3466 64.659C95.8266 64.9363 95.1939 65.075 94.4486 65.075H93.3046V68H90.4186V58.796H94.4486C95.5752 58.796 96.4376 59.082 97.0356 59.654C97.6422 60.226 97.9456 60.993 97.9456 61.955ZM94.1236 62.8C94.7216 62.8 95.0206 62.5183 95.0206 61.955C95.0206 61.3917 94.7216 61.11 94.1236 61.11H93.3046V62.8H94.1236ZM106.089 58.796V61.084H103.645V68H100.759V61.084H98.3409V58.796H106.089ZM106.612 63.385C106.612 62.475 106.794 61.6647 107.158 60.954C107.53 60.2433 108.059 59.693 108.744 59.303C109.428 58.9043 110.234 58.705 111.162 58.705C111.959 58.705 112.67 58.8567 113.294 59.16C113.926 59.4547 114.438 59.875 114.828 60.421C115.226 60.967 115.491 61.604 115.621 62.332H112.579C112.44 62.0287 112.241 61.7947 111.981 61.63C111.729 61.4567 111.439 61.37 111.11 61.37C110.624 61.37 110.239 61.552 109.953 61.916C109.675 62.28 109.537 62.7697 109.537 63.385C109.537 64.0003 109.675 64.49 109.953 64.854C110.239 65.218 110.624 65.4 111.11 65.4C111.439 65.4 111.729 65.3177 111.981 65.153C112.241 64.9797 112.44 64.7413 112.579 64.438H115.621C115.491 65.166 115.226 65.803 114.828 66.349C114.438 66.895 113.926 67.3197 113.294 67.623C112.67 67.9177 111.959 68.065 111.162 68.065C110.234 68.065 109.428 67.87 108.744 67.48C108.059 67.0813 107.53 66.5267 107.158 65.816C106.794 65.1053 106.612 64.295 106.612 63.385ZM116.374 65.699C117.535 64.8323 118.454 64.048 119.13 63.346C119.806 62.6353 120.144 61.9723 120.144 61.357C120.144 61.149 120.096 60.9887 120.001 60.876C119.914 60.7633 119.797 60.707 119.65 60.707C119.476 60.707 119.338 60.798 119.234 60.98C119.138 61.1533 119.104 61.422 119.13 61.786H116.335C116.361 60.98 116.534 60.317 116.855 59.797C117.184 59.277 117.609 58.8957 118.129 58.653C118.649 58.4103 119.221 58.289 119.845 58.289C120.954 58.289 121.764 58.5577 122.276 59.095C122.796 59.6237 123.056 60.304 123.056 61.136C123.056 62.0113 122.774 62.8347 122.211 63.606C121.656 64.3687 120.958 65.0143 120.118 65.543H123.095V67.87H116.374V65.699ZM126.675 65.036C126.718 65.2873 126.796 65.478 126.909 65.608C127.03 65.7293 127.195 65.79 127.403 65.79C127.724 65.79 127.932 65.6297 128.027 65.309C128.131 64.9797 128.183 64.4553 128.183 63.736C128.027 63.9787 127.802 64.1693 127.507 64.308C127.212 64.4467 126.879 64.516 126.506 64.516C125.683 64.516 125.02 64.256 124.517 63.736C124.014 63.216 123.763 62.4663 123.763 61.487C123.763 60.837 123.897 60.2737 124.166 59.797C124.443 59.3117 124.833 58.939 125.336 58.679C125.847 58.419 126.441 58.289 127.117 58.289C128.486 58.289 129.435 58.692 129.964 59.498C130.501 60.304 130.77 61.4523 130.77 62.943C130.77 64.659 130.506 65.946 129.977 66.804C129.457 67.662 128.577 68.091 127.338 68.091C126.653 68.091 126.064 67.948 125.57 67.662C125.076 67.376 124.695 67.0033 124.426 66.544C124.166 66.076 124.019 65.5733 123.984 65.036H126.675ZM127.221 62.306C127.455 62.306 127.641 62.241 127.78 62.111C127.919 61.981 127.988 61.799 127.988 61.565C127.988 61.305 127.919 61.1143 127.78 60.993C127.65 60.863 127.464 60.798 127.221 60.798C126.978 60.798 126.788 60.863 126.649 60.993C126.519 61.1143 126.454 61.305 126.454 61.565C126.454 61.799 126.523 61.981 126.662 62.111C126.801 62.241 126.987 62.306 127.221 62.306ZM131.546 63.112C131.546 61.6127 131.862 60.434 132.495 59.576C133.136 58.718 134.12 58.289 135.446 58.289C136.763 58.289 137.743 58.7223 138.384 59.589C139.025 60.447 139.346 61.6213 139.346 63.112C139.346 64.6113 139.025 65.7943 138.384 66.661C137.743 67.519 136.763 67.948 135.446 67.948C134.12 67.948 133.136 67.519 132.495 66.661C131.862 65.7943 131.546 64.6113 131.546 63.112ZM136.499 63.112C136.499 62.4187 136.43 61.8987 136.291 61.552C136.152 61.1967 135.871 61.019 135.446 61.019C135.013 61.019 134.727 61.1967 134.588 61.552C134.449 61.8987 134.38 62.4187 134.38 63.112C134.38 63.814 134.449 64.3427 134.588 64.698C134.727 65.0447 135.013 65.218 135.446 65.218C135.871 65.218 136.152 65.0447 136.291 64.698C136.43 64.3427 136.499 63.814 136.499 63.112ZM141.674 62.774C141.328 62.5747 141.055 62.3147 140.855 61.994C140.665 61.6647 140.569 61.2747 140.569 60.824C140.569 60.356 140.695 59.9313 140.946 59.55C141.198 59.1687 141.579 58.8653 142.09 58.64C142.61 58.406 143.247 58.289 144.001 58.289C144.755 58.289 145.388 58.406 145.899 58.64C146.419 58.8653 146.805 59.1687 147.056 59.55C147.308 59.9313 147.433 60.356 147.433 60.824C147.433 61.2747 147.334 61.6647 147.134 61.994C146.944 62.3147 146.675 62.5747 146.328 62.774C147.204 63.2853 147.641 64.0523 147.641 65.075C147.641 65.7337 147.477 66.2927 147.147 66.752C146.818 67.2113 146.376 67.558 145.821 67.792C145.267 68.026 144.66 68.143 144.001 68.143C143.343 68.143 142.736 68.026 142.181 67.792C141.627 67.558 141.185 67.2113 140.855 66.752C140.526 66.2927 140.361 65.7337 140.361 65.075C140.361 64.0523 140.799 63.2853 141.674 62.774ZM144.599 61.305C144.599 61.0623 144.543 60.8717 144.43 60.733C144.318 60.5857 144.175 60.512 144.001 60.512C143.828 60.512 143.685 60.5857 143.572 60.733C143.46 60.8717 143.403 61.0623 143.403 61.305C143.403 61.5563 143.46 61.747 143.572 61.877C143.685 62.007 143.828 62.072 144.001 62.072C144.175 62.072 144.318 62.007 144.43 61.877C144.543 61.747 144.599 61.5563 144.599 61.305ZM144.001 64.009C143.741 64.009 143.533 64.0957 143.377 64.269C143.23 64.4337 143.156 64.646 143.156 64.906C143.156 65.166 143.23 65.3783 143.377 65.543C143.525 65.7077 143.733 65.79 144.001 65.79C144.27 65.79 144.478 65.7077 144.625 65.543C144.773 65.3783 144.846 65.166 144.846 64.906C144.846 64.646 144.768 64.4337 144.612 64.269C144.465 64.0957 144.261 64.009 144.001 64.009ZM148.411 61.201V58.497H152.818V68H149.789V61.201H148.411ZM153.838 65.699C154.999 64.8323 155.918 64.048 156.594 63.346C157.27 62.6353 157.608 61.9723 157.608 61.357C157.608 61.149 157.56 60.9887 157.465 60.876C157.378 60.7633 157.261 60.707 157.114 60.707C156.94 60.707 156.802 60.798 156.698 60.98C156.602 61.1533 156.568 61.422 156.594 61.786H153.799C153.825 60.98 153.998 60.317 154.319 59.797C154.648 59.277 155.073 58.8957 155.593 58.653C156.113 58.4103 156.685 58.289 157.309 58.289C158.418 58.289 159.228 58.5577 159.74 59.095C160.26 59.6237 160.52 60.304 160.52 61.136C160.52 62.0113 160.238 62.8347 159.675 63.606C159.12 64.3687 158.422 65.0143 157.582 65.543H160.559V67.87H153.838V65.699Z" fill="#5E626F"/>
</svg>
