<svg width="286" height="76" viewBox="0 0 286 76" fill="none" xmlns="http://www.w3.org/2000/svg">
<path d="M8.242 32.119H9.958V44.157H8.242V32.119ZM9.568 36.812H11.7V38.255H9.568V36.812ZM0.468 33.9H7.475V35.278H0.468V33.9ZM3.991 35.954C5.746 35.954 7.046 37.15 7.046 38.827C7.046 40.504 5.746 41.7 3.991 41.7C2.236 41.7 0.936 40.504 0.936 38.827C0.936 37.15 2.236 35.954 3.991 35.954ZM3.991 37.358C3.172 37.358 2.587 37.904 2.587 38.827C2.587 39.75 3.172 40.296 3.991 40.296C4.81 40.296 5.395 39.75 5.395 38.827C5.395 37.904 4.81 37.358 3.991 37.358ZM3.12 32.314H4.849V34.42H3.12V32.314ZM20.734 32.106H22.476V44.183H20.734V32.106ZM15.989 32.951C17.809 32.951 19.148 34.615 19.148 37.241C19.148 39.893 17.809 41.557 15.989 41.557C14.169 41.557 12.83 39.893 12.83 37.241C12.83 34.615 14.169 32.951 15.989 32.951ZM15.989 34.524C15.092 34.524 14.481 35.473 14.481 37.241C14.481 39.035 15.092 39.997 15.989 39.997C16.886 39.997 17.484 39.035 17.484 37.241C17.484 35.473 16.886 34.524 15.989 34.524ZM24.711 33.172H31.367V34.55H24.711V33.172ZM24.555 41.44L24.386 40.023C26.466 40.023 29.287 39.997 31.653 39.711L31.77 40.959C29.352 41.388 26.609 41.44 24.555 41.44ZM25.712 34.303H27.389V40.374H25.712V34.303ZM28.559 34.303H30.236V40.374H28.559V34.303ZM32.823 32.119H34.539V44.157H32.823V32.119ZM31.029 36.487H34.097V37.878H31.029V36.487ZM44.119 32.119H45.835V44.157H44.119V32.119ZM45.445 36.812H47.577V38.255H45.445V36.812ZM36.345 33.9H43.352V35.278H36.345V33.9ZM39.868 35.954C41.623 35.954 42.923 37.15 42.923 38.827C42.923 40.504 41.623 41.7 39.868 41.7C38.113 41.7 36.813 40.504 36.813 38.827C36.813 37.15 38.113 35.954 39.868 35.954ZM39.868 37.358C39.049 37.358 38.464 37.904 38.464 38.827C38.464 39.75 39.049 40.296 39.868 40.296C40.687 40.296 41.272 39.75 41.272 38.827C41.272 37.904 40.687 37.358 39.868 37.358ZM38.997 32.314H40.726V34.42H38.997V32.314ZM56.6109 32.106H58.3529V44.183H56.6109V32.106ZM51.8659 32.951C53.6859 32.951 55.0249 34.615 55.0249 37.241C55.0249 39.893 53.6859 41.557 51.8659 41.557C50.0459 41.557 48.7069 39.893 48.7069 37.241C48.7069 34.615 50.0459 32.951 51.8659 32.951ZM51.8659 34.524C50.9689 34.524 50.3579 35.473 50.3579 37.241C50.3579 39.035 50.9689 39.997 51.8659 39.997C52.7629 39.997 53.3609 39.035 53.3609 37.241C53.3609 35.473 52.7629 34.524 51.8659 34.524ZM63.6169 32.951C65.4109 32.951 66.7239 34.615 66.7239 37.241C66.7239 39.893 65.4109 41.557 63.6169 41.557C61.8099 41.557 60.5099 39.893 60.5099 37.241C60.5099 34.615 61.8099 32.951 63.6169 32.951ZM63.6169 34.524C62.7459 34.524 62.1609 35.473 62.1609 37.241C62.1609 39.035 62.7459 39.997 63.6169 39.997C64.5009 39.997 65.0729 39.035 65.0729 37.241C65.0729 35.473 64.5009 34.524 63.6169 34.524ZM68.6999 32.106H70.4159V44.183H68.6999V32.106ZM66.2169 36.448H69.4279V37.839H66.2169V36.448Z" fill="#5E626F"/>
<path d="M2.916 3.556H4.224V4.54C4.224 6.748 3.264 8.692 1.152 9.424L0.3 8.164C2.16 7.54 2.916 6.052 2.916 4.54V3.556ZM3.24 3.556H4.536V4.696C4.536 6.028 5.28 7.324 7.02 7.864L6.192 9.1C4.188 8.428 3.24 6.7 3.24 4.696V3.556ZM7.632 2.956H9.228V9.52H7.632V2.956ZM8.784 5.524H10.704V6.844H8.784V5.524ZM5.604 9.772C7.908 9.772 9.36 10.576 9.36 11.92C9.36 13.276 7.908 14.068 5.604 14.068C3.288 14.068 1.836 13.276 1.836 11.92C1.836 10.576 3.288 9.772 5.604 9.772ZM5.604 11.008C4.188 11.008 3.42 11.308 3.42 11.92C3.42 12.544 4.188 12.832 5.604 12.832C7.02 12.832 7.776 12.544 7.776 11.92C7.776 11.308 7.02 11.008 5.604 11.008ZM11.9511 4.336H21.1191V5.608H11.9511V4.336ZM11.5311 11.668H21.5871V12.952H11.5311V11.668ZM15.7431 10.204H17.3271V12.172H15.7431V10.204ZM16.5231 6.088C18.8391 6.088 20.2911 6.892 20.2911 8.26C20.2911 9.628 18.8391 10.432 16.5231 10.432C14.2071 10.432 12.7551 9.628 12.7551 8.26C12.7551 6.892 14.2071 6.088 16.5231 6.088ZM16.5231 7.324C15.1311 7.324 14.3871 7.624 14.3871 8.26C14.3871 8.896 15.1311 9.184 16.5231 9.184C17.9151 9.184 18.6591 8.896 18.6591 8.26C18.6591 7.624 17.9151 7.324 16.5231 7.324ZM15.7431 3.076H17.3271V5.128H15.7431V3.076ZM27.9341 4.564H30.7661V5.824H27.9341V4.564ZM27.9341 6.784H30.8141V8.056H27.9341V6.784ZM30.2621 2.956H31.8581V9.46H30.2621V2.956ZM23.0141 3.76H28.2701V8.86H23.0141V3.76ZM26.6981 5.02H24.5861V7.612H26.6981V5.02ZM28.0901 9.748C30.4421 9.748 31.8941 10.552 31.8941 11.908C31.8941 13.276 30.4421 14.068 28.0901 14.068C25.7381 14.068 24.2861 13.276 24.2861 11.908C24.2861 10.552 25.7381 9.748 28.0901 9.748ZM28.0901 10.972C26.6501 10.972 25.8821 11.272 25.8821 11.908C25.8821 12.544 26.6501 12.856 28.0901 12.856C29.5421 12.856 30.3101 12.544 30.3101 11.908C30.3101 11.272 29.5421 10.972 28.0901 10.972Z" fill="#343741"/>
<path d="M9.165 58.796V68H6.279V64.412H3.536V68H0.65V58.796H3.536V62.111H6.279V58.796H9.165ZM18.7445 60.668L14.0515 71.51H10.8925L12.7385 67.636L9.68348 60.668H12.8945L14.2725 64.386L15.5595 60.668H18.7445ZM22.1473 61.669C22.3293 61.331 22.5893 61.0667 22.9273 60.876C23.274 60.6767 23.6857 60.577 24.1623 60.577C24.7343 60.577 25.25 60.7287 25.7093 61.032C26.1687 61.3267 26.5283 61.76 26.7883 62.332C27.057 62.8953 27.1913 63.5627 27.1913 64.334C27.1913 65.1053 27.057 65.777 26.7883 66.349C26.5283 66.9123 26.1687 67.3457 25.7093 67.649C25.25 67.9437 24.7343 68.091 24.1623 68.091C23.6857 68.091 23.274 67.9957 22.9273 67.805C22.5893 67.6057 22.3293 67.337 22.1473 66.999V71.51H19.2613V60.668H22.1473V61.669ZM24.2663 64.334C24.2663 63.944 24.1667 63.6407 23.9673 63.424C23.768 63.2073 23.5123 63.099 23.2003 63.099C22.8883 63.099 22.6327 63.2073 22.4333 63.424C22.234 63.6407 22.1343 63.944 22.1343 64.334C22.1343 64.724 22.234 65.0273 22.4333 65.244C22.6327 65.4607 22.8883 65.569 23.2003 65.569C23.5123 65.569 23.768 65.4607 23.9673 65.244C24.1667 65.0273 24.2663 64.724 24.2663 64.334ZM35.1953 64.269C35.1953 64.4683 35.1823 64.659 35.1563 64.841H30.5153C30.5586 65.4737 30.8229 65.79 31.3083 65.79C31.6203 65.79 31.8456 65.647 31.9843 65.361H35.0393C34.9353 65.881 34.7143 66.349 34.3763 66.765C34.0469 67.1723 33.6266 67.4973 33.1153 67.74C32.6126 67.974 32.0579 68.091 31.4513 68.091C30.7233 68.091 30.0733 67.9393 29.5013 67.636C28.9379 67.3327 28.4959 66.8993 28.1753 66.336C27.8633 65.764 27.7073 65.0967 27.7073 64.334C27.7073 63.5713 27.8633 62.9083 28.1753 62.345C28.4959 61.773 28.9379 61.3353 29.5013 61.032C30.0733 60.7287 30.7233 60.577 31.4513 60.577C32.1793 60.577 32.8249 60.7287 33.3883 61.032C33.9603 61.3267 34.4023 61.7513 34.7143 62.306C35.0349 62.8607 35.1953 63.515 35.1953 64.269ZM32.2703 63.58C32.2703 63.3373 32.1923 63.1553 32.0363 63.034C31.8803 62.904 31.6853 62.839 31.4513 62.839C30.9399 62.839 30.6409 63.086 30.5543 63.58H32.2703ZM38.994 62.02C39.2887 61.5953 39.6483 61.2573 40.073 61.006C40.4977 60.746 40.9397 60.616 41.399 60.616V63.697H40.58C40.034 63.697 39.631 63.7923 39.371 63.983C39.1197 64.1737 38.994 64.5117 38.994 64.997V68H36.108V60.668H38.994V62.02ZM47.3114 60.616C48.152 60.616 48.8064 60.8977 49.2744 61.461C49.751 62.0243 49.9894 62.787 49.9894 63.749V68H47.1164V64.113C47.1164 63.7663 47.021 63.4933 46.8304 63.294C46.6484 63.086 46.4014 62.982 46.0894 62.982C45.7687 62.982 45.5174 63.086 45.3354 63.294C45.1534 63.4933 45.0624 63.7663 45.0624 64.113V68H42.1764V58.38H45.0624V61.786C45.2877 61.4393 45.5867 61.1577 45.9594 60.941C46.3407 60.7243 46.7914 60.616 47.3114 60.616ZM52.6968 60.083C52.1942 60.083 51.7912 59.9487 51.4878 59.68C51.1845 59.4113 51.0328 59.0733 51.0328 58.666C51.0328 58.25 51.1845 57.9077 51.4878 57.639C51.7912 57.3617 52.1942 57.223 52.6968 57.223C53.1908 57.223 53.5895 57.3617 53.8928 57.639C54.1962 57.9077 54.3478 58.25 54.3478 58.666C54.3478 59.0733 54.1962 59.4113 53.8928 59.68C53.5895 59.9487 53.1908 60.083 52.6968 60.083ZM54.1268 60.668V68H51.2408V60.668H54.1268ZM58.3163 62.02C58.6109 61.5953 58.9706 61.2573 59.3953 61.006C59.8199 60.746 60.2619 60.616 60.7213 60.616V63.697H59.9023C59.3563 63.697 58.9533 63.7923 58.6933 63.983C58.4419 64.1737 58.3163 64.5117 58.3163 64.997V68H55.4303V60.668H58.3163V62.02ZM68.5966 64.269C68.5966 64.4683 68.5836 64.659 68.5576 64.841H63.9166C63.96 65.4737 64.2243 65.79 64.7096 65.79C65.0216 65.79 65.247 65.647 65.3856 65.361H68.4406C68.3366 65.881 68.1156 66.349 67.7776 66.765C67.4483 67.1723 67.028 67.4973 66.5166 67.74C66.014 67.974 65.4593 68.091 64.8526 68.091C64.1246 68.091 63.4746 67.9393 62.9026 67.636C62.3393 67.3327 61.8973 66.8993 61.5766 66.336C61.2646 65.764 61.1086 65.0967 61.1086 64.334C61.1086 63.5713 61.2646 62.9083 61.5766 62.345C61.8973 61.773 62.3393 61.3353 62.9026 61.032C63.4746 60.7287 64.1246 60.577 64.8526 60.577C65.5806 60.577 66.2263 60.7287 66.7896 61.032C67.3616 61.3267 67.8036 61.7513 68.1156 62.306C68.4363 62.8607 68.5966 63.515 68.5966 64.269ZM65.6716 63.58C65.6716 63.3373 65.5936 63.1553 65.4376 63.034C65.2816 62.904 65.0866 62.839 64.8526 62.839C64.3413 62.839 64.0423 63.086 63.9556 63.58H65.6716ZM74.6044 58.796V68H71.7184V58.796H74.6044ZM81.0428 60.616C81.8835 60.616 82.5378 60.8977 83.0058 61.461C83.4825 62.0243 83.7208 62.787 83.7208 63.749V68H80.8478V64.113C80.8478 63.7663 80.7525 63.4933 80.5618 63.294C80.3798 63.086 80.1328 62.982 79.8208 62.982C79.5001 62.982 79.2488 63.086 79.0668 63.294C78.8848 63.4933 78.7938 63.7663 78.7938 64.113V68H75.9078V60.668H78.7938V61.786C79.0191 61.4393 79.3181 61.1577 79.6908 60.941C80.0721 60.7243 80.5228 60.616 81.0428 60.616ZM84.5823 64.334C84.5823 63.5627 84.7123 62.8953 84.9723 62.332C85.2409 61.76 85.6049 61.3267 86.0643 61.032C86.5236 60.7287 87.0393 60.577 87.6113 60.577C88.0879 60.577 88.4953 60.6767 88.8333 60.876C89.1799 61.0667 89.4443 61.331 89.6263 61.669V58.38H92.5123V68H89.6263V66.999C89.4443 67.337 89.1799 67.6057 88.8333 67.805C88.4953 67.9957 88.0879 68.091 87.6113 68.091C87.0393 68.091 86.5236 67.9437 86.0643 67.649C85.6049 67.3457 85.2409 66.9123 84.9723 66.349C84.7123 65.777 84.5823 65.1053 84.5823 64.334ZM89.6393 64.334C89.6393 63.944 89.5396 63.6407 89.3403 63.424C89.1409 63.2073 88.8853 63.099 88.5733 63.099C88.2613 63.099 88.0056 63.2073 87.8063 63.424C87.6069 63.6407 87.5073 63.944 87.5073 64.334C87.5073 64.724 87.6069 65.0273 87.8063 65.244C88.0056 65.4607 88.2613 65.569 88.5733 65.569C88.8853 65.569 89.1409 65.4607 89.3403 65.244C89.5396 65.0273 89.6393 64.724 89.6393 64.334ZM95.2642 60.083C94.7615 60.083 94.3585 59.9487 94.0552 59.68C93.7519 59.4113 93.6002 59.0733 93.6002 58.666C93.6002 58.25 93.7519 57.9077 94.0552 57.639C94.3585 57.3617 94.7615 57.223 95.2642 57.223C95.7582 57.223 96.1569 57.3617 96.4602 57.639C96.7635 57.9077 96.9152 58.25 96.9152 58.666C96.9152 59.0733 96.7635 59.4113 96.4602 59.68C96.1569 59.9487 95.7582 60.083 95.2642 60.083ZM96.6942 60.668V68H93.8082V60.668H96.6942ZM97.6077 64.334C97.6077 63.5627 97.7377 62.8953 97.9977 62.332C98.2663 61.76 98.6303 61.3267 99.0897 61.032C99.549 60.7287 100.065 60.577 100.637 60.577C101.113 60.577 101.525 60.6767 101.872 60.876C102.218 61.0667 102.483 61.331 102.665 61.669V60.668H105.538V68H102.665V66.999C102.483 67.337 102.218 67.6057 101.872 67.805C101.525 67.9957 101.113 68.091 100.637 68.091C100.065 68.091 99.549 67.9437 99.0897 67.649C98.6303 67.3457 98.2663 66.9123 97.9977 66.349C97.7377 65.777 97.6077 65.1053 97.6077 64.334ZM102.665 64.334C102.665 63.944 102.565 63.6407 102.366 63.424C102.166 63.2073 101.911 63.099 101.599 63.099C101.287 63.099 101.031 63.2073 100.832 63.424C100.632 63.6407 100.533 63.944 100.533 64.334C100.533 64.724 100.632 65.0273 100.832 65.244C101.031 65.4607 101.287 65.569 101.599 65.569C101.911 65.569 102.166 65.4607 102.366 65.244C102.565 65.0273 102.665 64.724 102.665 64.334ZM116.57 61.955C116.57 62.5357 116.435 63.0643 116.167 63.541C115.898 64.009 115.499 64.3817 114.971 64.659C114.451 64.9363 113.818 65.075 113.073 65.075H111.929V68H109.043V58.796H113.073C114.199 58.796 115.062 59.082 115.66 59.654C116.266 60.226 116.57 60.993 116.57 61.955ZM112.748 62.8C113.346 62.8 113.645 62.5183 113.645 61.955C113.645 61.3917 113.346 61.11 112.748 61.11H111.929V62.8H112.748ZM120.371 62.02C120.666 61.5953 121.025 61.2573 121.45 61.006C121.875 60.746 122.317 60.616 122.776 60.616V63.697H121.957C121.411 63.697 121.008 63.7923 120.748 63.983C120.497 64.1737 120.371 64.5117 120.371 64.997V68H117.485V60.668H120.371V62.02ZM125.009 60.083C124.507 60.083 124.104 59.9487 123.8 59.68C123.497 59.4113 123.345 59.0733 123.345 58.666C123.345 58.25 123.497 57.9077 123.8 57.639C124.104 57.3617 124.507 57.223 125.009 57.223C125.503 57.223 125.902 57.3617 126.205 57.639C126.509 57.9077 126.66 58.25 126.66 58.666C126.66 59.0733 126.509 59.4113 126.205 59.68C125.902 59.9487 125.503 60.083 125.009 60.083ZM126.439 60.668V68H123.553V60.668H126.439ZM131.461 65.257L132.631 60.668H135.699L133.255 68H129.654L127.21 60.668H130.278L131.461 65.257ZM136.074 64.334C136.074 63.5627 136.204 62.8953 136.464 62.332C136.733 61.76 137.097 61.3267 137.556 61.032C138.016 60.7287 138.531 60.577 139.103 60.577C139.58 60.577 139.992 60.6767 140.338 60.876C140.685 61.0667 140.949 61.331 141.131 61.669V60.668H144.004V68H141.131V66.999C140.949 67.337 140.685 67.6057 140.338 67.805C139.992 67.9957 139.58 68.091 139.103 68.091C138.531 68.091 138.016 67.9437 137.556 67.649C137.097 67.3457 136.733 66.9123 136.464 66.349C136.204 65.777 136.074 65.1053 136.074 64.334ZM141.131 64.334C141.131 63.944 141.032 63.6407 140.832 63.424C140.633 63.2073 140.377 63.099 140.065 63.099C139.753 63.099 139.498 63.2073 139.298 63.424C139.099 63.6407 138.999 63.944 138.999 64.334C138.999 64.724 139.099 65.0273 139.298 65.244C139.498 65.4607 139.753 65.569 140.065 65.569C140.377 65.569 140.633 65.4607 140.832 65.244C141.032 65.0273 141.131 64.724 141.131 64.334ZM149.863 65.543V68H148.771C146.761 68 145.755 66.999 145.755 64.997V63.073H144.845V60.668H145.755V58.9H148.641V60.668H149.837V63.073H148.641V65.049C148.641 65.2223 148.68 65.348 148.758 65.426C148.845 65.504 148.984 65.543 149.174 65.543H149.863ZM158.061 64.269C158.061 64.4683 158.048 64.659 158.022 64.841H153.381C153.424 65.4737 153.688 65.79 154.174 65.79C154.486 65.79 154.711 65.647 154.85 65.361H157.905C157.801 65.881 157.58 66.349 157.242 66.765C156.912 67.1723 156.492 67.4973 155.981 67.74C155.478 67.974 154.923 68.091 154.317 68.091C153.589 68.091 152.939 67.9393 152.367 67.636C151.803 67.3327 151.361 66.8993 151.041 66.336C150.729 65.764 150.573 65.0967 150.573 64.334C150.573 63.5713 150.729 62.9083 151.041 62.345C151.361 61.773 151.803 61.3353 152.367 61.032C152.939 60.7287 153.589 60.577 154.317 60.577C155.045 60.577 155.69 60.7287 156.254 61.032C156.826 61.3267 157.268 61.7513 157.58 62.306C157.9 62.8607 158.061 63.515 158.061 64.269ZM155.136 63.58C155.136 63.3373 155.058 63.1553 154.902 63.034C154.746 62.904 154.551 62.839 154.317 62.839C153.805 62.839 153.506 63.086 153.42 63.58H155.136ZM164.068 65.816H166.85V68H161.182V58.796H164.068V65.816ZM169.214 60.083C168.712 60.083 168.309 59.9487 168.005 59.68C167.702 59.4113 167.55 59.0733 167.55 58.666C167.55 58.25 167.702 57.9077 168.005 57.639C168.309 57.3617 168.712 57.223 169.214 57.223C169.708 57.223 170.107 57.3617 170.41 57.639C170.714 57.9077 170.865 58.25 170.865 58.666C170.865 59.0733 170.714 59.4113 170.41 59.68C170.107 59.9487 169.708 60.083 169.214 60.083ZM170.644 60.668V68H167.758V60.668H170.644ZM181.737 60.616C182.673 60.616 183.397 60.8977 183.908 61.461C184.428 62.0243 184.688 62.787 184.688 63.749V68H181.815V64.113C181.815 63.801 181.72 63.5583 181.529 63.385C181.347 63.203 181.1 63.112 180.788 63.112C180.467 63.112 180.216 63.203 180.034 63.385C179.852 63.5583 179.761 63.801 179.761 64.113V68H176.888V64.113C176.888 63.801 176.793 63.5583 176.602 63.385C176.42 63.203 176.173 63.112 175.861 63.112C175.54 63.112 175.289 63.203 175.107 63.385C174.925 63.5583 174.834 63.801 174.834 64.113V68H171.948V60.668H174.834V61.656C175.042 61.344 175.324 61.0927 175.679 60.902C176.043 60.7113 176.468 60.616 176.953 60.616C177.482 60.616 177.95 60.733 178.357 60.967C178.764 61.1923 179.089 61.513 179.332 61.929C179.601 61.5477 179.943 61.2357 180.359 60.993C180.775 60.7417 181.234 60.616 181.737 60.616ZM187.394 60.083C186.891 60.083 186.488 59.9487 186.185 59.68C185.882 59.4113 185.73 59.0733 185.73 58.666C185.73 58.25 185.882 57.9077 186.185 57.639C186.488 57.3617 186.891 57.223 187.394 57.223C187.888 57.223 188.287 57.3617 188.59 57.639C188.893 57.9077 189.045 58.25 189.045 58.666C189.045 59.0733 188.893 59.4113 188.59 59.68C188.287 59.9487 187.888 60.083 187.394 60.083ZM188.824 60.668V68H185.938V60.668H188.824ZM194.691 65.543V68H193.599C191.588 68 190.583 66.999 190.583 64.997V63.073H189.673V60.668H190.583V58.9H193.469V60.668H194.665V63.073H193.469V65.049C193.469 65.2223 193.508 65.348 193.586 65.426C193.672 65.504 193.811 65.543 194.002 65.543H194.691ZM202.888 64.269C202.888 64.4683 202.875 64.659 202.849 64.841H198.208C198.251 65.4737 198.515 65.79 199.001 65.79C199.313 65.79 199.538 65.647 199.677 65.361H202.732C202.628 65.881 202.407 66.349 202.069 66.765C201.739 67.1723 201.319 67.4973 200.808 67.74C200.305 67.974 199.75 68.091 199.144 68.091C198.416 68.091 197.766 67.9393 197.194 67.636C196.63 67.3327 196.188 66.8993 195.868 66.336C195.556 65.764 195.4 65.0967 195.4 64.334C195.4 63.5713 195.556 62.9083 195.868 62.345C196.188 61.773 196.63 61.3353 197.194 61.032C197.766 60.7287 198.416 60.577 199.144 60.577C199.872 60.577 200.517 60.7287 201.081 61.032C201.653 61.3267 202.095 61.7513 202.407 62.306C202.727 62.8607 202.888 63.515 202.888 64.269ZM199.963 63.58C199.963 63.3373 199.885 63.1553 199.729 63.034C199.573 62.904 199.378 62.839 199.144 62.839C198.632 62.839 198.333 63.086 198.247 63.58H199.963ZM203.41 64.334C203.41 63.5627 203.54 62.8953 203.8 62.332C204.069 61.76 204.433 61.3267 204.892 61.032C205.352 60.7287 205.867 60.577 206.439 60.577C206.916 60.577 207.323 60.6767 207.661 60.876C208.008 61.0667 208.272 61.331 208.454 61.669V58.38H211.34V68H208.454V66.999C208.272 67.337 208.008 67.6057 207.661 67.805C207.323 67.9957 206.916 68.091 206.439 68.091C205.867 68.091 205.352 67.9437 204.892 67.649C204.433 67.3457 204.069 66.9123 203.8 66.349C203.54 65.777 203.41 65.1053 203.41 64.334ZM208.467 64.334C208.467 63.944 208.368 63.6407 208.168 63.424C207.969 63.2073 207.713 63.099 207.401 63.099C207.089 63.099 206.834 63.2073 206.634 63.424C206.435 63.6407 206.335 63.944 206.335 64.334C206.335 64.724 206.435 65.0273 206.634 65.244C206.834 65.4607 207.089 65.569 207.401 65.569C207.713 65.569 207.969 65.4607 208.168 65.244C208.368 65.0273 208.467 64.724 208.467 64.334Z" fill="#5E626F"/>
<path d="M208.044 32.808H209.864C209.864 36.006 207.823 38.177 204.235 39.1L203.585 37.748C206.536 37.007 208.044 35.473 208.044 33.666V32.808ZM204.274 32.808H209.162V34.16H204.274V32.808ZM211.788 32.119H213.53V38.827H211.788V32.119ZM205.561 39.334H213.53V44.027H205.561V39.334ZM211.827 40.699H207.264V42.662H211.827V40.699ZM219.938 33.458H221.433V33.809C221.433 35.928 219.704 37.657 216.649 38.073L216.012 36.721C218.664 36.396 219.938 35.044 219.938 33.809V33.458ZM220.432 33.458H221.927V33.809C221.927 35.044 223.201 36.396 225.853 36.721L225.229 38.073C222.161 37.657 220.432 35.928 220.432 33.809V33.458ZM220.029 39.75H221.745V44.17H220.029V39.75ZM215.492 38.762H226.373V40.14H215.492V38.762ZM216.454 32.73H225.385V34.095H216.454V32.73ZM235.784 32.132H237.513V41.297H235.784V32.132ZM234.211 35.109H236.434V36.487H234.211V35.109ZM234.211 37.696H236.434V39.061H234.211V37.696ZM227.477 33.38H234.081V34.732H227.477V33.38ZM230.857 35.161C232.495 35.161 233.678 36.136 233.678 37.527C233.678 38.918 232.495 39.893 230.857 39.893C229.219 39.893 228.036 38.918 228.036 37.527C228.036 36.136 229.219 35.161 230.857 35.161ZM230.857 36.487C230.155 36.487 229.661 36.864 229.661 37.527C229.661 38.203 230.155 38.567 230.857 38.567C231.559 38.567 232.053 38.203 232.053 37.527C232.053 36.864 231.559 36.487 230.857 36.487ZM229.999 32.093H231.728V34.212H229.999V32.093ZM229.544 42.571H237.773V43.949H229.544V42.571ZM229.544 40.543H231.286V43.208H229.544V40.543Z" fill="#5E626F"/>
<path d="M211.508 2.956H213.02V14.068H211.508V2.956ZM210.02 7.228H211.868V8.512H210.02V7.228ZM209.024 3.148H210.5V13.54H209.024V3.148ZM203.792 10.252H204.572C205.94 10.252 207.08 10.204 208.4 9.964L208.52 11.26C207.176 11.524 206 11.56 204.572 11.56H203.792V10.252ZM203.792 4.24H207.896V5.524H205.376V10.876H203.792V4.24ZM216.991 9.004H218.587V11.992H216.991V9.004ZM220.483 9.016H222.067V12.004H220.483V9.016ZM214.531 11.56H224.587V12.856H214.531V11.56ZM215.299 3.832H223.759V5.104H215.299V3.832ZM215.347 8.224H223.723V9.484H215.347V8.224ZM216.811 4.888H218.407V8.404H216.811V4.888ZM220.663 4.888H222.247V8.404H220.663V4.888ZM227.477 8.74C227.477 7.9 227.645 7.152 227.981 6.496C228.325 5.84 228.813 5.332 229.445 4.972C230.077 4.604 230.821 4.42 231.677 4.42C232.413 4.42 233.069 4.56 233.645 4.84C234.229 5.112 234.701 5.5 235.061 6.004C235.429 6.508 235.673 7.096 235.793 7.768H232.985C232.857 7.488 232.673 7.272 232.433 7.12C232.201 6.96 231.933 6.88 231.629 6.88C231.181 6.88 230.825 7.048 230.561 7.384C230.305 7.72 230.177 8.172 230.177 8.74C230.177 9.308 230.305 9.76 230.561 10.096C230.825 10.432 231.181 10.6 231.629 10.6C231.933 10.6 232.201 10.524 232.433 10.372C232.673 10.212 232.857 9.992 232.985 9.712H235.793C235.673 10.384 235.429 10.972 235.061 11.476C234.701 11.98 234.229 12.372 233.645 12.652C233.069 12.924 232.413 13.06 231.677 13.06C230.821 13.06 230.077 12.88 229.445 12.52C228.813 12.152 228.325 11.64 227.981 10.984C227.645 10.328 227.477 9.58 227.477 8.74ZM239.416 6.628V7.672H242.056V9.676H239.416V10.876H242.416V13H236.752V4.504H242.416V6.628H239.416ZM247.56 13.084C246.76 13.084 246.024 12.896 245.352 12.52C244.688 12.144 244.16 11.624 243.768 10.96C243.376 10.296 243.18 9.548 243.18 8.716C243.18 7.884 243.376 7.136 243.768 6.472C244.16 5.808 244.688 5.292 245.352 4.924C246.024 4.548 246.76 4.36 247.56 4.36C248.36 4.36 249.092 4.548 249.756 4.924C250.42 5.292 250.944 5.808 251.328 6.472C251.72 7.136 251.916 7.884 251.916 8.716C251.916 9.548 251.72 10.296 251.328 10.96C250.944 11.624 250.416 12.144 249.744 12.52C249.08 12.896 248.352 13.084 247.56 13.084ZM247.56 10.6C248.088 10.6 248.496 10.432 248.784 10.096C249.072 9.752 249.216 9.292 249.216 8.716C249.216 8.132 249.072 7.672 248.784 7.336C248.496 6.992 248.088 6.82 247.56 6.82C247.024 6.82 246.612 6.992 246.324 7.336C246.036 7.672 245.892 8.132 245.892 8.716C245.892 9.292 246.036 9.752 246.324 10.096C246.612 10.432 247.024 10.6 247.56 10.6Z" fill="#343741"/>
<path d="M210.072 61.796V67.737C210.072 68.8377 209.782 69.674 209.201 70.246C208.629 70.8093 207.823 71.091 206.783 71.091C205.665 71.091 204.777 70.7833 204.118 70.168C203.459 69.5527 203.13 68.6557 203.13 67.477H205.977C205.977 67.8497 206.038 68.114 206.159 68.27C206.28 68.4173 206.445 68.491 206.653 68.491C206.826 68.491 206.961 68.4347 207.056 68.322C207.151 68.2093 207.199 68.0143 207.199 67.737V61.796H210.072ZM219.079 63.668V71H216.193V69.882C215.968 70.2287 215.664 70.5103 215.283 70.727C214.91 70.9437 214.464 71.052 213.944 71.052C213.103 71.052 212.445 70.7703 211.968 70.207C211.5 69.6437 211.266 68.881 211.266 67.919V63.668H214.139V67.555C214.139 67.9017 214.23 68.179 214.412 68.387C214.603 68.5863 214.854 68.686 215.166 68.686C215.487 68.686 215.738 68.5863 215.92 68.387C216.102 68.179 216.193 67.9017 216.193 67.555V63.668H219.079ZM225.517 63.616C226.358 63.616 227.012 63.8977 227.48 64.461C227.957 65.0243 228.195 65.787 228.195 66.749V71H225.322V67.113C225.322 66.7663 225.227 66.4933 225.036 66.294C224.854 66.086 224.607 65.982 224.295 65.982C223.975 65.982 223.723 66.086 223.541 66.294C223.359 66.4933 223.268 66.7663 223.268 67.113V71H220.382V61.38H223.268V64.786C223.494 64.4393 223.793 64.1577 224.165 63.941C224.547 63.7243 224.997 63.616 225.517 63.616ZM237.728 63.668L233.035 74.51H229.876L231.722 70.636L228.667 63.668H231.878L233.256 67.386L234.543 63.668H237.728ZM246.006 63.668V71H243.12V69.882C242.894 70.2287 242.591 70.5103 242.21 70.727C241.837 70.9437 241.391 71.052 240.871 71.052C240.03 71.052 239.371 70.7703 238.895 70.207C238.427 69.6437 238.193 68.881 238.193 67.919V63.668H241.066V67.555C241.066 67.9017 241.157 68.179 241.339 68.387C241.529 68.5863 241.781 68.686 242.093 68.686C242.413 68.686 242.665 68.5863 242.847 68.387C243.029 68.179 243.12 67.9017 243.12 67.555V63.668H246.006ZM252.444 63.616C253.285 63.616 253.939 63.8977 254.407 64.461C254.884 65.0243 255.122 65.787 255.122 66.749V71H252.249V67.113C252.249 66.7663 252.154 66.4933 251.963 66.294C251.781 66.086 251.534 65.982 251.222 65.982C250.902 65.982 250.65 66.086 250.468 66.294C250.286 66.4933 250.195 66.7663 250.195 67.113V71H247.309V63.668H250.195V64.786C250.421 64.4393 250.72 64.1577 251.092 63.941C251.474 63.7243 251.924 63.616 252.444 63.616ZM264.147 71L261.469 67.009V71H258.583V61.796H261.469V65.67L264.108 61.796H267.371L264.199 66.203L267.579 71H264.147ZM269.852 63.083C269.349 63.083 268.946 62.9487 268.643 62.68C268.34 62.4113 268.188 62.0733 268.188 61.666C268.188 61.25 268.34 60.9077 268.643 60.639C268.946 60.3617 269.349 60.223 269.852 60.223C270.346 60.223 270.745 60.3617 271.048 60.639C271.351 60.9077 271.503 61.25 271.503 61.666C271.503 62.0733 271.351 62.4113 271.048 62.68C270.745 62.9487 270.346 63.083 269.852 63.083ZM271.282 63.668V71H268.396V63.668H271.282ZM282.375 63.616C283.311 63.616 284.034 63.8977 284.546 64.461C285.066 65.0243 285.326 65.787 285.326 66.749V71H282.453V67.113C282.453 66.801 282.357 66.5583 282.167 66.385C281.985 66.203 281.738 66.112 281.426 66.112C281.105 66.112 280.854 66.203 280.672 66.385C280.49 66.5583 280.399 66.801 280.399 67.113V71H277.526V67.113C277.526 66.801 277.43 66.5583 277.24 66.385C277.058 66.203 276.811 66.112 276.499 66.112C276.178 66.112 275.927 66.203 275.745 66.385C275.563 66.5583 275.472 66.801 275.472 67.113V71H272.586V63.668H275.472V64.656C275.68 64.344 275.961 64.0927 276.317 63.902C276.681 63.7113 277.105 63.616 277.591 63.616C278.119 63.616 278.587 63.733 278.995 63.967C279.402 64.1923 279.727 64.513 279.97 64.929C280.238 64.5477 280.581 64.2357 280.997 63.993C281.413 63.7417 281.872 63.616 282.375 63.616Z" fill="#5E626F"/>
</svg>
